Zoikabold.ufo3
<glyph name="slash" format="2">
  <advance width="400"/>
  <unicode hex="002F"/>
  <outline>
    <contour>
      <point x="109" y="-3" type="curve" smooth="yes"/>
      <point x="88.333" y="2.33301"/>
      <point x="72.833" y="14.333"/>
      <point x="62.5" y="33" type="curve" smooth="yes"/>
      <point x="52.167" y="51.667"/>
      <point x="49.667" y="71.334"/>
      <point x="55" y="92.001" type="curve" smooth="yes"/>
      <point x="195" y="593.001" type="line" smooth="yes"/>
      <point x="200.333" y="614.334"/>
      <point x="212.5" y="630.167"/>
      <point x="231.5" y="640.5" type="curve" smooth="yes"/>
      <point x="250.5" y="650.833"/>
      <point x="270.333" y="653.333"/>
      <point x="291" y="648" type="curve" smooth="yes"/>
      <point x="311.667" y="642"/>
      <point x="327.167" y="629.667"/>
      <point x="337.5" y="611" type="curve" smooth="yes"/>
      <point x="347.833" y="592.333"/>
      <point x="350.333" y="572.666"/>
      <point x="345" y="551.999" type="curve" smooth="yes"/>
      <point x="205" y="50.999" type="line" smooth="yes"/>
      <point x="199.667" y="29.666"/>
      <point x="187.667" y="13.833"/>
      <point x="169" y="3.5" type="curve" smooth="yes"/>
      <point x="150.333" y="-6.83301"/>
      <point x="130.333" y="-9"/>
    </contour>
  </outline>
</glyph>
<glyph name="colon" format="2">
  <advance width="205"/>
  <unicode hex="003A"/>
  <outline>
    <contour>
      <point x="172" y="106" type="curve" smooth="yes"/>
      <point x="172" y="86"/>
      <point x="165" y="69"/>
      <point x="151" y="55" type="curve" smooth="yes"/>
      <point x="137" y="41"/>
      <point x="120" y="34"/>
      <point x="100" y="34" type="curve" smooth="yes"/>
      <point x="80" y="34"/>
      <point x="63" y="41"/>
      <point x="49" y="55" type="curve" smooth="yes"/>
      <point x="35" y="69"/>
      <point x="28" y="86"/>
      <point x="28" y="106" type="curve" smooth="yes"/>
      <point x="28" y="125.333"/>
      <point x="35" y="142.166"/>
      <point x="49" y="156.499" type="curve" smooth="yes"/>
      <point x="63" y="170.832"/>
      <point x="80" y="177.999"/>
      <point x="100" y="177.999" type="curve" smooth="yes"/>
      <point x="120" y="177.999"/>
      <point x="137" y="170.832"/>
      <point x="151" y="156.499" type="curve" smooth="yes"/>
      <point x="165" y="142.166"/>
      <point x="172" y="125.333"/>
    </contour>
    <contour>
      <point x="172" y="408" type="curve" smooth="yes"/>
      <point x="172" y="388.667"/>
      <point x="165" y="371.834"/>
      <point x="151" y="357.501" type="curve" smooth="yes"/>
      <point x="137" y="343.168"/>
      <point x="120" y="336.001"/>
      <point x="100" y="336.001" type="curve" smooth="yes"/>
      <point x="80" y="336.001"/>
      <point x="63" y="343.168"/>
      <point x="49" y="357.501" type="curve" smooth="yes"/>
      <point x="35" y="371.834"/>
      <point x="28" y="388.667"/>
      <point x="28" y="408" type="curve" smooth="yes"/>
      <point x="28" y="428"/>
      <point x="35" y="445"/>
      <point x="49" y="459" type="curve" smooth="yes"/>
      <point x="63" y="473"/>
      <point x="80" y="480"/>
      <point x="100" y="480" type="curve" smooth="yes"/>
      <point x="120" y="480"/>
      <point x="137" y="473"/>
      <point x="151" y="459" type="curve" smooth="yes"/>
      <point x="165" y="445"/>
      <point x="172" y="428"/>
    </contour>
  </outline>
</glyph>
<glyph name="H" format="2">
  <advance width="550"/>
  <unicode hex="0048"/>
  <outline>
    <contour>
      <point x="525" y="14" type="line"/>
      <point x="528.333" y="12.667"/>
      <point x="530" y="9.99902"/>
      <point x="530" y="5.99902" type="curve" smooth="yes"/>
      <point x="530" y="-0.667969"/>
      <point x="526.667" y="-4.00098"/>
      <point x="520" y="-4.00098" type="curve" smooth="yes"/>
      <point x="511" y="-4.00098" type="line"/>
      <point x="422" y="-4.00098" type="line"/>
      <point x="334" y="-4.00098" type="line"/>
      <point x="334" y="-3.00098" type="line"/>
      <point x="334" y="-4.00098" type="line"/>
      <point x="325" y="-4.00098" type="line"/>
      <point x="324" y="-4.00098" type="line" smooth="yes"/>
      <point x="318" y="-4.00098"/>
      <point x="315" y="-0.667969"/>
      <point x="315" y="5.99902" type="curve" smooth="yes"/>
      <point x="315" y="9.99902"/>
      <point x="316.667" y="12.666"/>
      <point x="320" y="13.999" type="curve" smooth="yes"/>
      <point x="320" y="14.999" type="line" smooth="yes"/>
      <point x="321.333" y="15.666"/>
      <point x="324" y="17.666"/>
      <point x="328" y="20.999" type="curve" smooth="yes"/>
      <point x="332" y="24.332"/>
      <point x="334" y="30.332"/>
      <point x="334" y="38.999" type="curve" smooth="yes"/>
      <point x="334" y="279.999" type="line"/>
      <point x="328" y="287.999"/>
      <point x="321.667" y="292.999"/>
      <point x="315" y="294.999" type="curve" smooth="yes"/>
      <point x="237" y="294.999" type="line" smooth="yes"/>
      <point x="231.667" y="293.666"/>
      <point x="227.5" y="291.333"/>
      <point x="224.5" y="288" type="curve" smooth="yes"/>
      <point x="221.5" y="284.667"/>
      <point x="218.333" y="280.667"/>
      <point x="215" y="276" type="curve" smooth="yes"/>
      <point x="215" y="39" type="line" smooth="yes"/>
      <point x="215" y="30.333"/>
      <point x="217" y="24.333"/>
      <point x="221" y="21" type="curve" smooth="yes"/>
      <point x="225" y="17.667"/>
      <point x="227.667" y="15.667"/>
      <point x="229" y="15" type="curve" smooth="yes"/>
      <point x="229" y="14" type="line" smooth="yes"/>
      <point x="232.333" y="12.667"/>
      <point x="234" y="10"/>
      <point x="234" y="6" type="curve" smooth="yes"/>
      <point x="234" y="-0.666992"/>
      <point x="231" y="-4"/>
      <point x="225" y="-4" type="curve" smooth="yes"/>
      <point x="215" y="-4" type="line"/>
      <point x="127" y="-4" type="line"/>
      <point x="39" y="-4" type="line"/>
      <point x="39" y="-3" type="line"/>
      <point x="38" y="-4" type="line"/>
      <point x="29" y="-4" type="line" smooth="yes"/>
      <point x="22.333" y="-4"/>
      <point x="19" y="-0.666992"/>
      <point x="19" y="6" type="curve" smooth="yes"/>
      <point x="19" y="10"/>
      <point x="20.667" y="12.667"/>
      <point x="24" y="14" type="curve" smooth="yes"/>
      <point x="25" y="15" type="line" smooth="yes"/>
      <point x="25.667" y="15.667"/>
      <point x="28" y="17.667"/>
      <point x="32" y="21" type="curve" smooth="yes"/>
      <point x="36" y="24.333"/>
      <point x="38" y="30.333"/>
      <point x="38" y="39" type="curve" smooth="yes"/>
      <point x="38" y="42" type="line"/>
      <point x="38" y="60" type="line"/>
      <point x="38" y="108" type="line"/>
      <point x="38" y="201.5" type="line"/>
      <point x="38" y="355" type="line"/>
      <point x="38" y="584" type="line" smooth="yes"/>
      <point x="38" y="592.667"/>
      <point x="36" y="598.834"/>
      <point x="32" y="602.501" type="curve" smooth="yes"/>
      <point x="28" y="606.168"/>
      <point x="25.667" y="608.335"/>
      <point x="25" y="609.002" type="curve" smooth="yes"/>
      <point x="24" y="609.002" type="line" smooth="yes"/>
      <point x="20.667" y="611.002"/>
      <point x="19" y="613.669"/>
      <point x="19" y="617.002" type="curve" smooth="yes"/>
      <point x="19" y="623.669"/>
      <point x="22.333" y="627.002"/>
      <point x="29" y="627.002" type="curve" smooth="yes"/>
      <point x="38" y="627.002" type="line"/>
      <point x="215" y="627.002" type="line"/>
      <point x="225" y="627.002" type="line" smooth="yes"/>
      <point x="231" y="627.002"/>
      <point x="234" y="623.669"/>
      <point x="234" y="617.002" type="curve" smooth="yes"/>
      <point x="234" y="613.669"/>
      <point x="232.333" y="611.002"/>
      <point x="229" y="609.002" type="curve" smooth="yes"/>
      <point x="227.667" y="608.335"/>
      <point x="225" y="606.168"/>
      <point x="221" y="602.501" type="curve" smooth="yes"/>
      <point x="217" y="598.834"/>
      <point x="215" y="592.667"/>
      <point x="215" y="584" type="curve" smooth="yes"/>
      <point x="215" y="345" type="line"/>
      <point x="244" y="345" type="line"/>
      <point x="307" y="345" type="line"/>
      <point x="334" y="345" type="line"/>
      <point x="334" y="584" type="line" smooth="yes"/>
      <point x="334" y="592.667"/>
      <point x="332" y="598.834"/>
      <point x="328" y="602.501" type="curve" smooth="yes"/>
      <point x="324" y="606.168"/>
      <point x="321.333" y="608.335"/>
      <point x="320" y="609.002" type="curve" smooth="yes"/>
      <point x="316.667" y="611.002"/>
      <point x="315" y="613.669"/>
      <point x="315" y="617.002" type="curve" smooth="yes"/>
      <point x="315" y="623.669"/>
      <point x="318" y="627.002"/>
      <point x="324" y="627.002" type="curve" smooth="yes"/>
      <point x="325" y="627.002" type="line"/>
      <point x="334" y="627.002" type="line"/>
      <point x="511" y="627.002" type="line"/>
      <point x="520" y="627.002" type="line" smooth="yes"/>
      <point x="526.667" y="627.002"/>
      <point x="530" y="623.669"/>
      <point x="530" y="617.002" type="curve" smooth="yes"/>
      <point x="530" y="613.669"/>
      <point x="528.333" y="611.002"/>
      <point x="525" y="609.002" type="curve" smooth="yes"/>
      <point x="523.667" y="608.335"/>
      <point x="521" y="606.168"/>
      <point x="517" y="602.501" type="curve" smooth="yes"/>
      <point x="513" y="598.834"/>
      <point x="511" y="592.667"/>
      <point x="511" y="584" type="curve" smooth="yes"/>
      <point x="511" y="39" type="line" smooth="yes"/>
      <point x="511" y="30.333"/>
      <point x="513" y="24.333"/>
      <point x="517" y="21" type="curve" smooth="yes"/>
      <point x="521" y="17.667"/>
      <point x="523.667" y="15.667"/>
      <point x="525" y="15" type="curve" smooth="yes"/>
      <point x="525" y="14" type="line"/>
    </contour>
  </outline>
</glyph>
<glyph name="V" format="2">
  <advance width="550"/>
  <unicode hex="0056"/>
  <outline>
    <contour>
      <point x="530" y="618" type="curve" smooth="yes"/>
      <point x="530" y="614.667"/>
      <point x="528.328" y="612.001"/>
      <point x="524.995" y="610.001" type="curve" smooth="yes"/>
      <point x="523.662" y="609.334"/>
      <point x="521.495" y="607.501"/>
      <point x="518.495" y="604.501" type="curve" smooth="yes"/>
      <point x="515.495" y="601.501"/>
      <point x="513.328" y="596.668"/>
      <point x="511.995" y="590.001" type="curve" smooth="yes"/>
      <point x="511.995" y="201.001" type="line" smooth="yes"/>
      <point x="511.995" y="191.001"/>
      <point x="511.828" y="183.668"/>
      <point x="511.495" y="179.001" type="curve" smooth="yes"/>
      <point x="511.162" y="174.334"/>
      <point x="510.329" y="170.334"/>
      <point x="508.996" y="167.001" type="curve" smooth="yes"/>
      <point x="506.329" y="159.001"/>
      <point x="503.162" y="150.168"/>
      <point x="499.495" y="140.501" type="curve" smooth="yes"/>
      <point x="495.828" y="130.834"/>
      <point x="490.328" y="120.667"/>
      <point x="482.995" y="110" type="curve" smooth="yes"/>
      <point x="474.328" y="96.667"/>
      <point x="462.828" y="83.5"/>
      <point x="448.495" y="70.5" type="curve" smooth="yes"/>
      <point x="434.162" y="57.5"/>
      <point x="416.329" y="45.667"/>
      <point x="394.996" y="35" type="curve" smooth="yes"/>
      <point x="373.663" y="24.333"/>
      <point x="348.33" y="15.833"/>
      <point x="318.997" y="9.5" type="curve" smooth="yes"/>
      <point x="289.664" y="3.16699"/>
      <point x="255.331" y="0"/>
      <point x="215.998" y="0" type="curve" smooth="yes"/>
      <point x="38.998" y="0" type="line"/>
      <point x="38.998" y="589" type="line" smooth="yes"/>
      <point x="37.665" y="596.333"/>
      <point x="35.332" y="601.5"/>
      <point x="31.999" y="604.5" type="curve" smooth="yes"/>
      <point x="28.666" y="607.5"/>
      <point x="26.333" y="609.333"/>
      <point x="25" y="610" type="curve" smooth="yes"/>
      <point x="21.667" y="612"/>
      <point x="20" y="614.667"/>
      <point x="20" y="618" type="curve" smooth="yes"/>
      <point x="20" y="624.667"/>
      <point x="23" y="628"/>
      <point x="29" y="628" type="curve" smooth="yes"/>
      <point x="30" y="628" type="line"/>
      <point x="39" y="628" type="line"/>
      <point x="143" y="628" type="line" smooth="yes"/>
      <point x="163" y="628"/>
      <point x="180.167" y="620.833"/>
      <point x="194.5" y="606.5" type="curve" smooth="yes"/>
      <point x="208.833" y="592.167"/>
      <point x="216" y="574.667"/>
      <point x="216" y="554" type="curve" smooth="yes"/>
      <point x="216" y="21" type="line"/>
      <point x="234.667" y="25.667"/>
      <point x="252" y="34"/>
      <point x="268" y="46" type="curve" smooth="yes"/>
      <point x="281.333" y="56"/>
      <point x="294.333" y="70"/>
      <point x="307" y="88" type="curve" smooth="yes"/>
      <point x="319.667" y="106"/>
      <point x="328.667" y="130"/>
      <point x="334" y="160" type="curve"/>
      <point x="335" y="628" type="line"/>
      <point x="408" y="628" type="line"/>
      <point x="511" y="628" type="line"/>
      <point x="512" y="628" type="line"/>
      <point x="521" y="628" type="line" smooth="yes"/>
      <point x="527" y="628"/>
      <point x="530" y="624.667"/>
    </contour>
  </outline>
</glyph>
<glyph name="e" format="2">
  <advance width="550"/>
  <unicode hex="0065"/>
  <outline>
    <contour>
      <point x="422" y="235" type="curve" smooth="yes"/>
      <point x="446.667" y="235"/>
      <point x="467.669" y="226.497"/>
      <point x="485.002" y="209.497" type="curve" smooth="yes"/>
      <point x="502.335" y="192.497"/>
      <point x="511.002" y="171.664"/>
      <point x="511.002" y="146.997" type="curve" smooth="yes"/>
      <point x="511.002" y="138.997"/>
      <point x="509.169" y="126.664"/>
      <point x="505.502" y="109.997" type="curve" smooth="yes"/>
      <point x="501.835" y="93.3301"/>
      <point x="492.335" y="76.8301"/>
      <point x="477.002" y="60.4971" type="curve" smooth="yes"/>
      <point x="461.669" y="44.1641"/>
      <point x="438.169" y="29.6641"/>
      <point x="406.502" y="16.9971" type="curve" smooth="yes"/>
      <point x="374.835" y="4.33008"/>
      <point x="330.668" y="-2.00293"/>
      <point x="274.001" y="-2.00293" type="curve" smooth="yes"/>
      <point x="229.334" y="-2.00293"/>
      <point x="192.667" y="2.16406"/>
      <point x="164" y="10.4971" type="curve" smooth="yes"/>
      <point x="135.333" y="18.8301"/>
      <point x="112.333" y="28.9971"/>
      <point x="95" y="40.9971" type="curve" smooth="yes"/>
      <point x="77.667" y="52.9971"/>
      <point x="65" y="65.4971"/>
      <point x="57" y="78.4971" type="curve" smooth="yes"/>
      <point x="49" y="91.4971"/>
      <point x="43.667" y="102.997"/>
      <point x="41" y="112.997" type="curve" smooth="yes"/>
      <point x="38" y="128.997" type="line"/>
      <point x="38" y="141.497" type="line"/>
      <point x="38" y="170.997" type="line"/>
      <point x="38" y="211.497" type="line"/>
      <point x="38" y="257.997" type="line"/>
      <point x="38" y="382.997" type="line" smooth="yes"/>
      <point x="39.333" y="408.33"/>
      <point x="48.666" y="431.33"/>
      <point x="65.999" y="451.997" type="curve" smooth="yes"/>
      <point x="73.332" y="460.664"/>
      <point x="82.665" y="469.164"/>
      <point x="93.998" y="477.497" type="curve" smooth="yes"/>
      <point x="105.331" y="485.83"/>
      <point x="119.164" y="493.33"/>
      <point x="135.497" y="499.997" type="curve" smooth="yes"/>
      <point x="151.83" y="506.664"/>
      <point x="171.497" y="511.997"/>
      <point x="194.497" y="515.997" type="curve" smooth="yes"/>
      <point x="217.497" y="519.997"/>
      <point x="243.997" y="521.997"/>
      <point x="273.997" y="521.997" type="curve" smooth="yes"/>
      <point x="323.997" y="521.997"/>
      <point x="364.164" y="516.83"/>
      <point x="394.497" y="506.497" type="curve" smooth="yes"/>
      <point x="424.83" y="496.164"/>
      <point x="448.33" y="483.831"/>
      <point x="464.997" y="469.498" type="curve" smooth="yes"/>
      <point x="481.664" y="455.165"/>
      <point x="492.831" y="440.832"/>
      <point x="498.498" y="426.499" type="curve" smooth="yes"/>
      <point x="504.165" y="412.166"/>
      <point x="507.665" y="400.999"/>
      <point x="508.998" y="392.999" type="curve" smooth="yes"/>
      <point x="510.998" y="382.999"/>
      <point x="511.665" y="373.666"/>
      <point x="510.998" y="364.999" type="curve" smooth="yes"/>
      <point x="510.331" y="360.332"/>
      <point x="509.331" y="355.665"/>
      <point x="507.998" y="350.998" type="curve" smooth="yes"/>
      <point x="506.665" y="346.331"/>
      <point x="505.332" y="341.998"/>
      <point x="503.999" y="337.998" type="curve" smooth="yes"/>
      <point x="502.999" y="336.998" type="line" smooth="yes"/>
      <point x="500.999" y="332.331"/>
      <point x="498.332" y="327.664"/>
      <point x="494.999" y="322.997" type="curve" smooth="yes"/>
      <point x="491.666" y="317.664"/>
      <point x="485.999" y="311.831"/>
      <point x="477.999" y="305.498" type="curve" smooth="yes"/>
      <point x="469.999" y="299.165"/>
      <point x="459.332" y="293.332"/>
      <point x="445.999" y="287.999" type="curve" smooth="yes"/>
      <point x="434.666" y="282.666"/>
      <point x="419.833" y="276.666"/>
      <point x="401.5" y="269.999" type="curve" smooth="yes"/>
      <point x="383.167" y="263.332"/>
      <point x="363.167" y="256.332"/>
      <point x="341.5" y="248.999" type="curve" smooth="yes"/>
      <point x="319.833" y="241.666"/>
      <point x="298" y="234.333"/>
      <point x="276" y="227" type="curve" smooth="yes"/>
      <point x="254" y="219.667"/>
      <point x="233.667" y="213"/>
      <point x="215" y="207" type="curve"/>
      <point x="215" y="137" type="line"/>
      <point x="215" y="94" type="line" smooth="yes"/>
      <point x="215.667" y="86.667"/>
      <point x="218.334" y="80"/>
      <point x="223.001" y="74" type="curve" smooth="yes"/>
      <point x="226.334" y="68.667"/>
      <point x="232.001" y="64"/>
      <point x="240.001" y="60" type="curve" smooth="yes"/>
      <point x="248.001" y="56"/>
      <point x="259.334" y="54"/>
      <point x="274.001" y="54" type="curve" smooth="yes"/>
      <point x="288.668" y="54"/>
      <point x="300.168" y="56"/>
      <point x="308.501" y="60" type="curve" smooth="yes"/>
      <point x="316.834" y="64"/>
      <point x="322.667" y="68.667"/>
      <point x="326" y="74" type="curve" smooth="yes"/>
      <point x="330" y="80"/>
      <point x="332.333" y="86.667"/>
      <point x="333" y="94" type="curve" smooth="yes"/>
      <point x="334" y="147" type="line" smooth="yes"/>
      <point x="334" y="171.667"/>
      <point x="342.667" y="192.5"/>
      <point x="360" y="209.5" type="curve" smooth="yes"/>
      <point x="377.333" y="226.5"/>
      <point x="398" y="235"/>
    </contour>
    <contour>
      <point x="215.002" y="382.997" type="line"/>
      <point x="215.002" y="242.998" type="line"/>
      <point x="244.335" y="255.665"/>
      <point x="266.835" y="267.165"/>
      <point x="282.502" y="277.498" type="curve" smooth="yes"/>
      <point x="298.169" y="287.831"/>
      <point x="309.669" y="296.664"/>
      <point x="317.002" y="303.997" type="curve" smooth="yes"/>
      <point x="325.669" y="311.997"/>
      <point x="331.002" y="319.33"/>
      <point x="333.002" y="325.997" type="curve" smooth="yes"/>
      <point x="333.002" y="425.997" type="line" smooth="yes"/>
      <point x="332.335" y="433.33"/>
      <point x="330.002" y="439.997"/>
      <point x="326.002" y="445.997" type="curve" smooth="yes"/>
      <point x="322.669" y="451.33"/>
      <point x="316.836" y="455.997"/>
      <point x="308.503" y="459.997" type="curve" smooth="yes"/>
      <point x="300.17" y="463.997"/>
      <point x="288.67" y="465.997"/>
      <point x="274.003" y="465.997" type="curve" smooth="yes"/>
      <point x="259.336" y="465.997"/>
      <point x="248.003" y="463.997"/>
      <point x="240.003" y="459.997" type="curve" smooth="yes"/>
      <point x="232.003" y="455.997"/>
      <point x="226.336" y="451.33"/>
      <point x="223.003" y="445.997" type="curve" smooth="yes"/>
      <point x="218.336" y="439.997"/>
      <point x="215.669" y="433.33"/>
      <point x="215.002" y="425.997" type="curve" smooth="yes"/>
    </contour>
  </outline>
</glyph>
<glyph name="Eth" format="2">
  <advance width="550"/>
  <unicode hex="00D0"/>
  <outline>
    <contour>
      <point x="524" y="539" type="curve" smooth="yes"/>
      <point x="529.333" y="528.333"/>
      <point x="532.499" y="519.167"/>
      <point x="533.499" y="511.5" type="curve" smooth="yes"/>
      <point x="534.499" y="503.833"/>
      <point x="534.999" y="499"/>
      <point x="534.999" y="497" type="curve" smooth="yes"/>
      <point x="534.999" y="153" type="line" smooth="yes"/>
      <point x="534.999" y="150.333"/>
      <point x="534.832" y="148"/>
      <point x="534.499" y="146" type="curve" smooth="yes"/>
      <point x="534.166" y="144"/>
      <point x="533.999" y="141.667"/>
      <point x="533.999" y="139" type="curve" smooth="yes"/>
      <point x="533.999" y="134.333"/>
      <point x="532.166" y="125.666"/>
      <point x="528.499" y="112.999" type="curve" smooth="yes"/>
      <point x="524.832" y="100.332"/>
      <point x="516.999" y="86.999"/>
      <point x="504.999" y="72.999" type="curve" smooth="yes"/>
      <point x="492.999" y="58.999"/>
      <point x="475.332" y="45.666"/>
      <point x="451.999" y="32.999" type="curve" smooth="yes"/>
      <point x="428.666" y="20.332"/>
      <point x="396.999" y="11.665"/>
      <point x="356.999" y="6.99805" type="curve" smooth="yes"/>
      <point x="338.999" y="4.99805"/>
      <point x="319.332" y="3.99805"/>
      <point x="297.999" y="3.99805" type="curve" smooth="yes"/>
      <point x="287.999" y="3.99805" type="line"/>
      <point x="194.999" y="4.99805" type="line"/>
      <point x="60.999" y="4.99805" type="line"/>
      <point x="60.999" y="248.998" type="line"/>
      <point x="48.999" y="248.998" type="line" smooth="yes"/>
      <point x="35.666" y="248.998"/>
      <point x="24.166" y="253.831"/>
      <point x="14.499" y="263.498" type="curve" smooth="yes"/>
      <point x="4.83203" y="273.165"/>
      <point x="-0.000976562" y="284.665"/>
      <point x="-0.000976562" y="297.998" type="curve" smooth="yes"/>
      <point x="-0.000976562" y="302.998" type="line" smooth="yes"/>
      <point x="-0.000976562" y="316.331"/>
      <point x="4.83203" y="327.831"/>
      <point x="14.499" y="337.498" type="curve" smooth="yes"/>
      <point x="24.166" y="347.165"/>
      <point x="35.666" y="351.998"/>
      <point x="48.999" y="351.998" type="curve" smooth="yes"/>
      <point x="60.999" y="351.998" type="line"/>
      <point x="60.999" y="593.998" type="line" smooth="yes"/>
      <point x="60.999" y="601.331"/>
      <point x="58.999" y="606.831"/>
      <point x="54.999" y="610.498" type="curve" smooth="yes"/>
      <point x="50.999" y="614.165"/>
      <point x="48.332" y="616.332"/>
      <point x="46.999" y="616.999" type="curve" smooth="yes"/>
      <point x="43.666" y="618.999"/>
      <point x="41.999" y="621.666"/>
      <point x="41.999" y="624.999" type="curve" smooth="yes"/>
      <point x="41.999" y="631.666"/>
      <point x="45.332" y="634.999"/>
      <point x="51.999" y="634.999" type="curve" smooth="yes"/>
      <point x="60.999" y="634.999" type="line"/>
      <point x="199.999" y="634.999" type="line"/>
      <point x="237.999" y="634.999" type="line"/>
      <point x="265.999" y="634.999" type="line" smooth="yes"/>
      <point x="271.332" y="634.999"/>
      <point x="276.665" y="635.166"/>
      <point x="281.998" y="635.499" type="curve" smooth="yes"/>
      <point x="287.331" y="635.832"/>
      <point x="292.998" y="635.999"/>
      <point x="298.998" y="635.999" type="curve" smooth="yes"/>
      <point x="336.998" y="635.999"/>
      <point x="369.165" y="632.832"/>
      <point x="395.498" y="626.499" type="curve" smooth="yes"/>
      <point x="421.831" y="620.166"/>
      <point x="443.831" y="612.333"/>
      <point x="461.498" y="603" type="curve" smooth="yes"/>
      <point x="479.165" y="593.667"/>
      <point x="492.832" y="583.167"/>
      <point x="502.499" y="571.5" type="curve" smooth="yes"/>
      <point x="512.166" y="559.833"/>
      <point x="519.333" y="549"/>
    </contour>
    <contour>
      <point x="356.999" y="539.001" type="line" smooth="yes"/>
      <point x="356.332" y="546.334"/>
      <point x="353.999" y="552.999"/>
      <point x="349.999" y="558.999" type="curve" smooth="yes"/>
      <point x="346.666" y="564.332"/>
      <point x="340.833" y="569.165"/>
      <point x="332.5" y="573.498" type="curve" smooth="yes"/>
      <point x="324.167" y="577.831"/>
      <point x="312.667" y="579.998"/>
      <point x="298" y="579.998" type="curve" smooth="yes"/>
      <point x="240" y="579.998" type="line"/>
      <point x="239" y="486.998" type="line" smooth="yes"/>
      <point x="239" y="482.331"/>
      <point x="238.667" y="478.664"/>
      <point x="238" y="475.997" type="curve" smooth="yes"/>
      <point x="238" y="348.997" type="line"/>
      <point x="247.333" y="345.664"/>
      <point x="255" y="339.831"/>
      <point x="261" y="331.498" type="curve" smooth="yes"/>
      <point x="267" y="323.165"/>
      <point x="270" y="313.665"/>
      <point x="270" y="302.998" type="curve" smooth="yes"/>
      <point x="270" y="297.998" type="line" smooth="yes"/>
      <point x="270" y="287.331"/>
      <point x="267" y="277.831"/>
      <point x="261" y="269.498" type="curve" smooth="yes"/>
      <point x="255" y="261.165"/>
      <point x="247.333" y="255.332"/>
      <point x="238" y="251.999" type="curve"/>
      <point x="238" y="162.999" type="line" smooth="yes"/>
      <point x="238" y="161.666"/>
      <point x="238.167" y="160.333"/>
      <point x="238.5" y="159" type="curve" smooth="yes"/>
      <point x="238.833" y="157.667"/>
      <point x="239" y="156.334"/>
      <point x="239" y="155.001" type="curve" smooth="yes"/>
      <point x="239" y="60.001" type="line"/>
      <point x="298" y="60.001" type="line" smooth="yes"/>
      <point x="312.667" y="60.001"/>
      <point x="324.167" y="62.001"/>
      <point x="332.5" y="66.001" type="curve" smooth="yes"/>
      <point x="340.833" y="70.001"/>
      <point x="346.666" y="74.668"/>
      <point x="349.999" y="80.001" type="curve" smooth="yes"/>
      <point x="353.999" y="86.001"/>
      <point x="356.332" y="92.668"/>
      <point x="356.999" y="100.001" type="curve" smooth="yes"/>
      <point x="356.999" y="130.001" type="line"/>
    </contour>
  </outline>
</glyph>
<glyph name="igrave" format="2">
  <advance width="250"/>
  <unicode hex="00EC"/>
  <outline>
    <contour>
      <point x="212" y="29" type="line" smooth="yes"/>
      <point x="212.667" y="23"/>
      <point x="213.999" y="17.998"/>
      <point x="215.999" y="13.998" type="curve" smooth="yes"/>
      <point x="217.332" y="10.665"/>
      <point x="219.332" y="7.49805"/>
      <point x="221.999" y="4.49805" type="curve" smooth="yes"/>
      <point x="224.666" y="1.49805"/>
      <point x="228.333" y="-0.00195312"/>
      <point x="233" y="-0.00195312" type="curve"/>
      <point x="212" y="-0.00195312" type="line"/>
      <point x="205" y="-0.00195312" type="line"/>
      <point x="35" y="-0.00195312" type="line"/>
      <point x="35" y="448.998" type="line" smooth="yes"/>
      <point x="35" y="457.665"/>
      <point x="33" y="463.832"/>
      <point x="29" y="467.499" type="curve" smooth="yes"/>
      <point x="25" y="471.166"/>
      <point x="22.333" y="473.333"/>
      <point x="21" y="474" type="curve" smooth="yes"/>
      <point x="17.667" y="476"/>
      <point x="16" y="478.667"/>
      <point x="16" y="482" type="curve" smooth="yes"/>
      <point x="16" y="488.667"/>
      <point x="19" y="492"/>
      <point x="25" y="492" type="curve" smooth="yes"/>
      <point x="26" y="492" type="line"/>
      <point x="35" y="492" type="line"/>
      <point x="124" y="492" type="line" smooth="yes"/>
      <point x="136" y="492"/>
      <point x="147.333" y="489.667"/>
      <point x="158" y="485" type="curve" smooth="yes"/>
      <point x="168.667" y="480.333"/>
      <point x="178" y="474"/>
      <point x="186" y="466" type="curve" smooth="yes"/>
      <point x="194" y="458"/>
      <point x="200.333" y="448.5"/>
      <point x="205" y="437.5" type="curve" smooth="yes"/>
      <point x="209.667" y="426.5"/>
      <point x="212" y="415"/>
      <point x="212" y="403" type="curve" smooth="yes"/>
    </contour>
    <contour>
      <point x="149.999" y="555.998" type="curve" smooth="yes"/>
      <point x="159.332" y="553.998"/>
      <point x="167.829" y="551.502"/>
      <point x="175.496" y="548.502" type="curve" smooth="yes"/>
      <point x="183.163" y="545.502"/>
      <point x="187.33" y="543.002"/>
      <point x="187.997" y="541.002" type="curve" smooth="yes"/>
      <point x="188.664" y="539.002"/>
      <point x="184.331" y="538.002"/>
      <point x="174.998" y="538.002" type="curve" smooth="yes"/>
      <point x="165.665" y="538.002"/>
      <point x="148.665" y="540.002"/>
      <point x="123.998" y="544.002" type="curve" smooth="yes"/>
      <point x="99.3311" y="548.002"/>
      <point x="78.8311" y="553.502"/>
      <point x="62.498" y="560.502" type="curve" smooth="yes"/>
      <point x="46.165" y="567.502"/>
      <point x="32.832" y="575.169"/>
      <point x="22.499" y="583.502" type="curve" smooth="yes"/>
      <point x="12.166" y="591.835"/>
      <point x="4.49902" y="600.168"/>
      <point x="-0.500977" y="608.501" type="curve" smooth="yes"/>
      <point x="-5.50098" y="616.834"/>
      <point x="-9.00098" y="624.667"/>
      <point x="-11.001" y="632" type="curve" smooth="yes"/>
      <point x="-13.001" y="638"/>
      <point x="-14.001" y="643.333"/>
      <point x="-14.001" y="648" type="curve" smooth="yes"/>
      <point x="-14.001" y="658" type="line" smooth="yes"/>
      <point x="-14.001" y="659.333"/>
      <point x="-13.834" y="660.833"/>
      <point x="-13.501" y="662.5" type="curve" smooth="yes"/>
      <point x="-13.168" y="664.167"/>
      <point x="-13.001" y="665.667"/>
      <point x="-13.001" y="667" type="curve" smooth="yes"/>
      <point x="-10.334" y="682.333"/>
      <point x="-2.50098" y="694.666"/>
      <point x="10.499" y="703.999" type="curve" smooth="yes"/>
      <point x="23.499" y="713.332"/>
      <point x="37.999" y="716.665"/>
      <point x="53.999" y="713.998" type="curve" smooth="yes"/>
      <point x="69.999" y="711.331"/>
      <point x="82.666" y="703.498"/>
      <point x="91.999" y="690.498" type="curve" smooth="yes"/>
      <point x="101.332" y="677.498"/>
      <point x="104.332" y="662.998"/>
      <point x="100.999" y="646.998" type="curve" smooth="yes"/>
      <point x="99.999" y="636.998" type="line"/>
      <point x="97.999" y="626.998" type="line" smooth="yes"/>
      <point x="96.666" y="620.331"/>
      <point x="95.999" y="615.664"/>
      <point x="95.999" y="612.997" type="curve" smooth="yes"/>
      <point x="97.332" y="602.997"/>
      <point x="101.832" y="591.83"/>
      <point x="109.499" y="579.497" type="curve" smooth="yes"/>
      <point x="117.166" y="567.164"/>
      <point x="130.666" y="559.331"/>
    </contour>
  </outline>
</glyph>
<glyph name="icircumflex" format="2">
  <advance width="250"/>
  <unicode hex="00EE"/>
  <outline>
    <contour>
      <point x="212" y="29" type="line" smooth="yes"/>
      <point x="212.667" y="23"/>
      <point x="213.999" y="17.998"/>
      <point x="215.999" y="13.998" type="curve" smooth="yes"/>
      <point x="217.332" y="10.665"/>
      <point x="219.332" y="7.49805"/>
      <point x="221.999" y="4.49805" type="curve" smooth="yes"/>
      <point x="224.666" y="1.49805"/>
      <point x="228.333" y="-0.00195312"/>
      <point x="233" y="-0.00195312" type="curve"/>
      <point x="212" y="-0.00195312" type="line"/>
      <point x="205" y="-0.00195312" type="line"/>
      <point x="35" y="-0.00195312" type="line"/>
      <point x="35" y="448.998" type="line" smooth="yes"/>
      <point x="35" y="457.665"/>
      <point x="33" y="463.832"/>
      <point x="29" y="467.499" type="curve" smooth="yes"/>
      <point x="25" y="471.166"/>
      <point x="22.333" y="473.333"/>
      <point x="21" y="474" type="curve" smooth="yes"/>
      <point x="17.667" y="476"/>
      <point x="16" y="478.667"/>
      <point x="16" y="482" type="curve" smooth="yes"/>
      <point x="16" y="488.667"/>
      <point x="19" y="492"/>
      <point x="25" y="492" type="curve" smooth="yes"/>
      <point x="26" y="492" type="line"/>
      <point x="35" y="492" type="line"/>
      <point x="124" y="492" type="line" smooth="yes"/>
      <point x="136" y="492"/>
      <point x="147.333" y="489.667"/>
      <point x="158" y="485" type="curve" smooth="yes"/>
      <point x="168.667" y="480.333"/>
      <point x="178" y="474"/>
      <point x="186" y="466" type="curve" smooth="yes"/>
      <point x="194" y="458"/>
      <point x="200.333" y="448.5"/>
      <point x="205" y="437.5" type="curve" smooth="yes"/>
      <point x="209.667" y="426.5"/>
      <point x="212" y="415"/>
      <point x="212" y="403" type="curve" smooth="yes"/>
    </contour>
    <contour>
      <point x="235.999" y="578.998" type="line" smooth="yes"/>
      <point x="235.999" y="566.998"/>
      <point x="231.83" y="556.829"/>
      <point x="223.497" y="548.496" type="curve" smooth="yes"/>
      <point x="215.164" y="540.163"/>
      <point x="204.997" y="535.996"/>
      <point x="192.997" y="535.996" type="curve" smooth="yes"/>
      <point x="181.664" y="535.996"/>
      <point x="171.664" y="540.163"/>
      <point x="162.997" y="548.496" type="curve" smooth="yes"/>
      <point x="154.33" y="556.829"/>
      <point x="149.997" y="566.996"/>
      <point x="149.997" y="578.996" type="curve" smooth="yes"/>
      <point x="149.997" y="603.996" type="line" smooth="yes"/>
      <point x="149.33" y="607.996"/>
      <point x="147.997" y="611.329"/>
      <point x="145.997" y="613.996" type="curve" smooth="yes"/>
      <point x="143.997" y="616.663"/>
      <point x="141.33" y="618.996"/>
      <point x="137.997" y="620.996" type="curve" smooth="yes"/>
      <point x="134.664" y="622.996"/>
      <point x="129.331" y="623.996"/>
      <point x="121.998" y="623.996" type="curve" smooth="yes"/>
      <point x="114.665" y="623.996"/>
      <point x="109.165" y="622.996"/>
      <point x="105.498" y="620.996" type="curve" smooth="yes"/>
      <point x="101.831" y="618.996"/>
      <point x="98.998" y="616.663"/>
      <point x="96.998" y="613.996" type="curve" smooth="yes"/>
      <point x="94.3311" y="611.329"/>
      <point x="92.998" y="607.996"/>
      <point x="92.998" y="603.996" type="curve" smooth="yes"/>
      <point x="92.998" y="577.996" type="line" smooth="yes"/>
      <point x="92.3311" y="566.663"/>
      <point x="87.8311" y="556.83"/>
      <point x="79.498" y="548.497" type="curve" smooth="yes"/>
      <point x="71.165" y="540.164"/>
      <point x="61.332" y="535.997"/>
      <point x="49.999" y="535.997" type="curve" smooth="yes"/>
      <point x="37.999" y="535.997"/>
      <point x="27.832" y="540.164"/>
      <point x="19.499" y="548.497" type="curve" smooth="yes"/>
      <point x="11.166" y="556.83"/>
      <point x="6.99902" y="566.997"/>
      <point x="6.99902" y="578.997" type="curve" smooth="yes"/>
      <point x="6.99902" y="583.997" type="line" smooth="yes"/>
      <point x="7.66602" y="595.997"/>
      <point x="11.999" y="606.997"/>
      <point x="19.999" y="616.997" type="curve" smooth="yes"/>
      <point x="27.332" y="625.664"/>
      <point x="38.499" y="633.497"/>
      <point x="53.499" y="640.497" type="curve" smooth="yes"/>
      <point x="68.499" y="647.497"/>
      <point x="90.999" y="650.997"/>
      <point x="120.999" y="650.997" type="curve" smooth="yes"/>
      <point x="147.666" y="650.997"/>
      <point x="168.499" y="647.997"/>
      <point x="183.499" y="641.997" type="curve" smooth="yes"/>
      <point x="198.499" y="635.997"/>
      <point x="209.832" y="629.33"/>
      <point x="217.499" y="621.997" type="curve" smooth="yes"/>
      <point x="225.166" y="614.664"/>
      <point x="230.166" y="607.331"/>
      <point x="232.499" y="599.998" type="curve" smooth="yes"/>
      <point x="234.832" y="592.665"/>
      <point x="235.999" y="587.665"/>
      <point x="235.999" y="584.998" type="curve" smooth="yes"/>
    </contour>
  </outline>
</glyph>
<glyph name="yacute" format="2">
  <advance width="550"/>
  <unicode hex="00FD"/>
  <outline>
    <contour>
      <point x="520" y="-103" type="line" smooth="yes"/>
      <point x="520" y="-105"/>
      <point x="519.338" y="-109.834"/>
      <point x="518.005" y="-117.501" type="curve" smooth="yes"/>
      <point x="516.672" y="-125.168"/>
      <point x="513.672" y="-134.001"/>
      <point x="509.005" y="-144.001" type="curve" smooth="yes"/>
      <point x="504.338" y="-154.001"/>
      <point x="497.171" y="-164.834"/>
      <point x="487.504" y="-176.501" type="curve" smooth="yes"/>
      <point x="477.837" y="-188.168"/>
      <point x="464.337" y="-198.668"/>
      <point x="447.004" y="-208.001" type="curve" smooth="yes"/>
      <point x="429.671" y="-217.334"/>
      <point x="407.671" y="-225.167"/>
      <point x="381.004" y="-231.5" type="curve" smooth="yes"/>
      <point x="354.337" y="-237.833"/>
      <point x="322.004" y="-241"/>
      <point x="284.004" y="-241" type="curve" smooth="yes"/>
      <point x="261.337" y="-241"/>
      <point x="236.17" y="-239"/>
      <point x="208.503" y="-235" type="curve" smooth="yes"/>
      <point x="180.836" y="-231"/>
      <point x="155.003" y="-223.5"/>
      <point x="131.003" y="-212.5" type="curve" smooth="yes"/>
      <point x="107.003" y="-201.5"/>
      <point x="86.8359" y="-186.333"/>
      <point x="70.5029" y="-167" type="curve" smooth="yes"/>
      <point x="54.1699" y="-147.667"/>
      <point x="46.0029" y="-123"/>
      <point x="46.0029" y="-93" type="curve" smooth="yes"/>
      <point x="46.0029" y="-68.333"/>
      <point x="54.6699" y="-47.333"/>
      <point x="72.0029" y="-30" type="curve" smooth="yes"/>
      <point x="89.3359" y="-12.667"/>
      <point x="110.336" y="-4"/>
      <point x="135.003" y="-4" type="curve" smooth="yes"/>
      <point x="159.67" y="-4"/>
      <point x="180.67" y="-12.667"/>
      <point x="198.003" y="-30" type="curve" smooth="yes"/>
      <point x="215.336" y="-47.333"/>
      <point x="224.003" y="-68.333"/>
      <point x="224.003" y="-93" type="curve" smooth="yes"/>
      <point x="224.003" y="-145" type="line" smooth="yes"/>
      <point x="224.67" y="-153"/>
      <point x="227.003" y="-160"/>
      <point x="231.003" y="-166" type="curve" smooth="yes"/>
      <point x="234.336" y="-171.333"/>
      <point x="240.003" y="-176"/>
      <point x="248.003" y="-180" type="curve" smooth="yes"/>
      <point x="256.003" y="-184"/>
      <point x="267.67" y="-186"/>
      <point x="283.003" y="-186" type="curve" smooth="yes"/>
      <point x="297.67" y="-186"/>
      <point x="309.17" y="-184"/>
      <point x="317.503" y="-180" type="curve" smooth="yes"/>
      <point x="325.836" y="-176"/>
      <point x="331.669" y="-171.333"/>
      <point x="335.002" y="-166" type="curve" smooth="yes"/>
      <point x="339.002" y="-160"/>
      <point x="341.335" y="-153"/>
      <point x="342.002" y="-145" type="curve" smooth="yes"/>
      <point x="342.002" y="143" type="line"/>
      <point x="320.669" y="115"/>
      <point x="302.336" y="91"/>
      <point x="287.003" y="71" type="curve" smooth="yes"/>
      <point x="271.67" y="51"/>
      <point x="257.67" y="35.667"/>
      <point x="245.003" y="25" type="curve" smooth="yes"/>
      <point x="235.67" y="17.667"/>
      <point x="226.337" y="12.5"/>
      <point x="217.004" y="9.5" type="curve" smooth="yes"/>
      <point x="207.671" y="6.5"/>
      <point x="199.338" y="4.33301"/>
      <point x="192.005" y="3" type="curve" smooth="yes"/>
      <point x="183.338" y="1.66699"/>
      <point x="174.671" y="1.33398"/>
      <point x="166.004" y="2.00098" type="curve" smooth="yes"/>
      <point x="148.004" y="2.00098"/>
      <point x="132.671" y="4.33398"/>
      <point x="120.004" y="9.00098" type="curve" smooth="yes"/>
      <point x="107.337" y="13.668"/>
      <point x="96.6699" y="19.668"/>
      <point x="88.0029" y="27.001" type="curve" smooth="yes"/>
      <point x="79.3359" y="34.334"/>
      <point x="72.3359" y="42.334"/>
      <point x="67.0029" y="51.001" type="curve" smooth="yes"/>
      <point x="61.6699" y="59.668"/>
      <point x="57.6699" y="68.001"/>
      <point x="55.0029" y="76.001" type="curve" smooth="yes"/>
      <point x="50.3359" y="87.334"/>
      <point x="48.0029" y="98.667"/>
      <point x="48.0029" y="110" type="curve" smooth="yes"/>
      <point x="48.0029" y="453" type="line" smooth="yes"/>
      <point x="47.3359" y="460.333"/>
      <point x="45.1689" y="465.5"/>
      <point x="41.502" y="468.5" type="curve" smooth="yes"/>
      <point x="37.835" y="471.5"/>
      <point x="35.335" y="473.333"/>
      <point x="34.002" y="474" type="curve" smooth="yes"/>
      <point x="30.6689" y="476"/>
      <point x="29.002" y="479"/>
      <point x="29.002" y="483" type="curve" smooth="yes"/>
      <point x="29.002" y="489"/>
      <point x="32.335" y="492"/>
      <point x="39.002" y="492" type="curve" smooth="yes"/>
      <point x="48.002" y="492" type="line"/>
      <point x="136.002" y="492" type="line" smooth="yes"/>
      <point x="160.669" y="492"/>
      <point x="181.669" y="483.5"/>
      <point x="199.002" y="466.5" type="curve" smooth="yes"/>
      <point x="216.335" y="449.5"/>
      <point x="225.002" y="428.667"/>
      <point x="225.002" y="404" type="curve" smooth="yes"/>
      <point x="225.002" y="110" type="line" smooth="yes"/>
      <point x="225.002" y="106.667"/>
      <point x="226.002" y="103.667"/>
      <point x="228.002" y="101" type="curve" smooth="yes"/>
      <point x="229.335" y="99"/>
      <point x="231.168" y="97.5"/>
      <point x="233.501" y="96.5" type="curve" smooth="yes"/>
      <point x="235.834" y="95.5"/>
      <point x="239.667" y="96.333"/>
      <point x="245" y="99" type="curve" smooth="yes"/>
      <point x="249" y="101"/>
      <point x="255.5" y="106"/>
      <point x="264.5" y="114" type="curve" smooth="yes"/>
      <point x="273.5" y="122"/>
      <point x="283" y="130.667"/>
      <point x="293" y="140" type="curve" smooth="yes"/>
      <point x="303" y="149.333"/>
      <point x="312.667" y="158.333"/>
      <point x="322" y="167" type="curve" smooth="yes"/>
      <point x="331.333" y="175.667"/>
      <point x="338" y="182"/>
      <point x="342" y="186" type="curve"/>
      <point x="342" y="492" type="line"/>
      <point x="432" y="492" type="line"/>
      <point x="519" y="492" type="line"/>
    </contour>
    <contour>
      <point x="226.005" y="572.999" type="curve" smooth="yes"/>
      <point x="245.338" y="574.999"/>
      <point x="259.507" y="582"/>
      <point x="268.507" y="594" type="curve" smooth="yes"/>
      <point x="277.507" y="606"/>
      <point x="282.674" y="616.667"/>
      <point x="284.007" y="626" type="curve" smooth="yes"/>
      <point x="285.34" y="629.333"/>
      <point x="285.34" y="634.333"/>
      <point x="284.007" y="641" type="curve" smooth="yes"/>
      <point x="282.007" y="651" type="line"/>
      <point x="280.007" y="660" type="line" smooth="yes"/>
      <point x="278.674" y="676.667"/>
      <point x="283.007" y="691.167"/>
      <point x="293.007" y="703.5" type="curve" smooth="yes"/>
      <point x="303.007" y="715.833"/>
      <point x="316.007" y="722.666"/>
      <point x="332.007" y="723.999" type="curve" smooth="yes"/>
      <point x="348.007" y="725.999"/>
      <point x="362.34" y="721.832"/>
      <point x="375.007" y="711.499" type="curve" smooth="yes"/>
      <point x="387.674" y="701.166"/>
      <point x="394.674" y="688.333"/>
      <point x="396.007" y="673" type="curve" smooth="yes"/>
      <point x="396.674" y="671"/>
      <point x="396.841" y="669.333"/>
      <point x="396.508" y="668" type="curve" smooth="yes"/>
      <point x="396.175" y="666.667"/>
      <point x="396.342" y="665.334"/>
      <point x="397.009" y="664.001" type="curve" smooth="yes"/>
      <point x="396.342" y="662.001"/>
      <point x="395.842" y="658.501"/>
      <point x="395.509" y="653.501" type="curve" smooth="yes"/>
      <point x="395.176" y="648.501"/>
      <point x="394.009" y="643.334"/>
      <point x="392.009" y="638.001" type="curve" smooth="yes"/>
      <point x="389.342" y="630.668"/>
      <point x="385.175" y="623.001"/>
      <point x="379.508" y="615.001" type="curve" smooth="yes"/>
      <point x="373.841" y="607.001"/>
      <point x="365.674" y="599.334"/>
      <point x="355.007" y="592.001" type="curve" smooth="yes"/>
      <point x="344.34" y="584.668"/>
      <point x="330.673" y="578.168"/>
      <point x="314.006" y="572.501" type="curve" smooth="yes"/>
      <point x="297.339" y="566.834"/>
      <point x="276.672" y="563.001"/>
      <point x="252.005" y="561.001" type="curve" smooth="yes"/>
      <point x="227.338" y="558.334"/>
      <point x="210.171" y="557.167"/>
      <point x="200.504" y="557.5" type="curve" smooth="yes"/>
      <point x="190.837" y="557.833"/>
      <point x="186.337" y="559"/>
      <point x="187.004" y="561" type="curve" smooth="yes"/>
      <point x="187.671" y="563"/>
      <point x="191.838" y="565.167"/>
      <point x="199.505" y="567.5" type="curve" smooth="yes"/>
      <point x="207.172" y="569.833"/>
      <point x="216.005" y="571.666"/>
    </contour>
  </outline>
</glyph>
<glyph name="Dcaron" format="2">
  <advance width="550"/>
  <unicode hex="010E"/>
  <outline>
    <contour>
      <point x="167" y="742" type="line" smooth="yes"/>
      <point x="167" y="754"/>
      <point x="171.167" y="764.169"/>
      <point x="179.5" y="772.502" type="curve" smooth="yes"/>
      <point x="187.833" y="780.835"/>
      <point x="198" y="785.002"/>
      <point x="210" y="785.002" type="curve" smooth="yes"/>
      <point x="221.333" y="785.002"/>
      <point x="231.333" y="780.835"/>
      <point x="240" y="772.502" type="curve" smooth="yes"/>
      <point x="248.667" y="764.169"/>
      <point x="253" y="754.002"/>
      <point x="253" y="742.002" type="curve" smooth="yes"/>
      <point x="253" y="717.002" type="line" smooth="yes"/>
      <point x="253" y="713.002"/>
      <point x="254.333" y="709.669"/>
      <point x="257" y="707.002" type="curve" smooth="yes"/>
      <point x="259" y="704.335"/>
      <point x="261.833" y="702.002"/>
      <point x="265.5" y="700.002" type="curve" smooth="yes"/>
      <point x="269.167" y="698.002"/>
      <point x="274.667" y="697.002"/>
      <point x="282" y="697.002" type="curve" smooth="yes"/>
      <point x="289.333" y="697.002"/>
      <point x="294.666" y="698.002"/>
      <point x="297.999" y="700.002" type="curve" smooth="yes"/>
      <point x="301.332" y="702.002"/>
      <point x="303.999" y="704.335"/>
      <point x="305.999" y="707.002" type="curve" smooth="yes"/>
      <point x="307.999" y="709.669"/>
      <point x="309.332" y="713.002"/>
      <point x="309.999" y="717.002" type="curve" smooth="yes"/>
      <point x="309.999" y="743.002" type="line" smooth="yes"/>
      <point x="310.666" y="755.002"/>
      <point x="315.166" y="765.002"/>
      <point x="323.499" y="773.002" type="curve" smooth="yes"/>
      <point x="331.832" y="781.002"/>
      <point x="341.665" y="785.002"/>
      <point x="352.998" y="785.002" type="curve" smooth="yes"/>
      <point x="364.998" y="785.002"/>
      <point x="375.165" y="780.835"/>
      <point x="383.498" y="772.502" type="curve" smooth="yes"/>
      <point x="391.831" y="764.169"/>
      <point x="395.998" y="754.002"/>
      <point x="395.998" y="742.002" type="curve" smooth="yes"/>
      <point x="395.998" y="737.002" type="line" smooth="yes"/>
      <point x="395.331" y="724.335"/>
      <point x="390.998" y="713.002"/>
      <point x="382.998" y="703.002" type="curve" smooth="yes"/>
      <point x="375.665" y="694.335"/>
      <point x="364.332" y="686.668"/>
      <point x="348.999" y="680.001" type="curve" smooth="yes"/>
      <point x="333.666" y="673.334"/>
      <point x="311.333" y="670.001"/>
      <point x="282" y="670.001" type="curve" smooth="yes"/>
      <point x="255.333" y="670.001"/>
      <point x="234.5" y="673.001"/>
      <point x="219.5" y="679.001" type="curve" smooth="yes"/>
      <point x="204.5" y="685.001"/>
      <point x="193.167" y="691.668"/>
      <point x="185.5" y="699.001" type="curve" smooth="yes"/>
      <point x="177.833" y="706.334"/>
      <point x="172.833" y="713.667"/>
      <point x="170.5" y="721" type="curve" smooth="yes"/>
      <point x="168.167" y="728.333"/>
      <point x="167" y="733.333"/>
      <point x="167" y="736" type="curve" smooth="yes"/>
    </contour>
    <contour>
      <point x="510" y="535.002" type="curve" smooth="yes"/>
      <point x="515.333" y="524.335"/>
      <point x="518.499" y="515.169"/>
      <point x="519.499" y="507.502" type="curve" smooth="yes"/>
      <point x="520.499" y="499.835"/>
      <point x="520.999" y="495.002"/>
      <point x="520.999" y="493.002" type="curve" smooth="yes"/>
      <point x="520.999" y="149.002" type="line" smooth="yes"/>
      <point x="520.999" y="146.335"/>
      <point x="520.832" y="144.002"/>
      <point x="520.499" y="142.002" type="curve" smooth="yes"/>
      <point x="520.166" y="140.002"/>
      <point x="519.999" y="137.669"/>
      <point x="519.999" y="135.002" type="curve" smooth="yes"/>
      <point x="519.332" y="130.335"/>
      <point x="517.332" y="121.668"/>
      <point x="513.999" y="109.001" type="curve" smooth="yes"/>
      <point x="510.666" y="96.334"/>
      <point x="502.999" y="83.001"/>
      <point x="490.999" y="69.001" type="curve" smooth="yes"/>
      <point x="478.999" y="55.001"/>
      <point x="461.332" y="41.668"/>
      <point x="437.999" y="29.001" type="curve" smooth="yes"/>
      <point x="414.666" y="16.334"/>
      <point x="382.999" y="7.66699"/>
      <point x="342.999" y="3" type="curve" smooth="yes"/>
      <point x="324.999" y="1"/>
      <point x="304.999" y="0"/>
      <point x="282.999" y="0" type="curve" smooth="yes"/>
      <point x="277.499" y="0" type="line"/>
      <point x="250.499" y="0" type="line" smooth="yes"/>
      <point x="235.499" y="0"/>
      <point x="212.166" y="0.166992"/>
      <point x="180.499" y="0.5" type="curve" smooth="yes"/>
      <point x="148.832" y="0.833008"/>
      <point x="104.332" y="1"/>
      <point x="46.999" y="1" type="curve"/>
      <point x="46.999" y="590" type="line" smooth="yes"/>
      <point x="46.332" y="597.333"/>
      <point x="44.165" y="602.833"/>
      <point x="40.498" y="606.5" type="curve" smooth="yes"/>
      <point x="36.8311" y="610.167"/>
      <point x="34.3311" y="612.334"/>
      <point x="32.998" y="613.001" type="curve" smooth="yes"/>
      <point x="29.665" y="615.001"/>
      <point x="27.998" y="617.668"/>
      <point x="27.998" y="621.001" type="curve" smooth="yes"/>
      <point x="27.998" y="627.668"/>
      <point x="31.3311" y="631.001"/>
      <point x="37.998" y="631.001" type="curve" smooth="yes"/>
      <point x="46.998" y="631.001" type="line"/>
      <point x="284.998" y="632.001" type="line" smooth="yes"/>
      <point x="322.998" y="632.001"/>
      <point x="355.165" y="628.834"/>
      <point x="381.498" y="622.501" type="curve" smooth="yes"/>
      <point x="407.831" y="616.168"/>
      <point x="429.831" y="608.335"/>
      <point x="447.498" y="599.002" type="curve" smooth="yes"/>
      <point x="465.165" y="589.669"/>
      <point x="478.832" y="579.169"/>
      <point x="488.499" y="567.502" type="curve" smooth="yes"/>
      <point x="498.166" y="555.835"/>
      <point x="505.333" y="545.002"/>
    </contour>
    <contour>
      <point x="342.999" y="126.003" type="line"/>
      <point x="342.999" y="535.004" type="line" smooth="yes"/>
      <point x="342.332" y="542.337"/>
      <point x="339.999" y="549.004"/>
      <point x="335.999" y="555.004" type="curve" smooth="yes"/>
      <point x="332.666" y="560.337"/>
      <point x="326.833" y="565.17"/>
      <point x="318.5" y="569.503" type="curve" smooth="yes"/>
      <point x="310.167" y="573.836"/>
      <point x="298.667" y="576.003"/>
      <point x="284" y="576.003" type="curve" smooth="yes"/>
      <point x="226" y="576.003" type="line"/>
      <point x="225" y="56.0029" type="line"/>
      <point x="284" y="56.0029" type="line" smooth="yes"/>
      <point x="298.667" y="56.0029"/>
      <point x="310.167" y="58.0029"/>
      <point x="318.5" y="62.0029" type="curve" smooth="yes"/>
      <point x="326.833" y="66.0029"/>
      <point x="332.666" y="70.6699"/>
      <point x="335.999" y="76.0029" type="curve" smooth="yes"/>
      <point x="339.999" y="82.0029"/>
      <point x="342.332" y="88.6699"/>
      <point x="342.999" y="96.0029" type="curve" smooth="yes"/>
    </contour>
  </outline>
</glyph>
<glyph name="gdotaccent" format="2">
  <advance width="550"/>
  <unicode hex="0121"/>
  <outline>
    <contour>
      <point x="320" y="604" type="curve" smooth="yes"/>
      <point x="320" y="589.333"/>
      <point x="315" y="576.833"/>
      <point x="305" y="566.5" type="curve" smooth="yes"/>
      <point x="295" y="556.167"/>
      <point x="282.667" y="551"/>
      <point x="268" y="551" type="curve" smooth="yes"/>
      <point x="253.333" y="551"/>
      <point x="240.833" y="556.167"/>
      <point x="230.5" y="566.5" type="curve" smooth="yes"/>
      <point x="220.167" y="576.833"/>
      <point x="215" y="589.333"/>
      <point x="215" y="604" type="curve" smooth="yes"/>
      <point x="215" y="618.667"/>
      <point x="220.167" y="631"/>
      <point x="230.5" y="641" type="curve" smooth="yes"/>
      <point x="240.833" y="651"/>
      <point x="253.333" y="656"/>
      <point x="268" y="656" type="curve" smooth="yes"/>
      <point x="282.667" y="656"/>
      <point x="295" y="651"/>
      <point x="305" y="641" type="curve" smooth="yes"/>
      <point x="315" y="631"/>
      <point x="320" y="618.667"/>
    </contour>
    <contour>
      <point x="520" y="486" type="curve" smooth="yes"/>
      <point x="520" y="492"/>
      <point x="517.008" y="495.001"/>
      <point x="511.008" y="495.001" type="curve" smooth="yes"/>
      <point x="501.008" y="495.001" type="line" smooth="yes"/>
      <point x="449.008" y="495.001"/>
      <point x="408.008" y="495.168"/>
      <point x="378.008" y="495.501" type="curve" smooth="yes"/>
      <point x="348.008" y="495.834"/>
      <point x="325.341" y="496.167"/>
      <point x="310.008" y="496.5" type="curve" smooth="yes"/>
      <point x="294.675" y="496.833"/>
      <point x="284.175" y="497"/>
      <point x="278.508" y="497" type="curve" smooth="yes"/>
      <point x="265.008" y="497" type="line" smooth="yes"/>
      <point x="220.341" y="497"/>
      <point x="183.674" y="492.833"/>
      <point x="155.007" y="484.5" type="curve" smooth="yes"/>
      <point x="126.34" y="476.167"/>
      <point x="103.34" y="466"/>
      <point x="86.0068" y="454" type="curve" smooth="yes"/>
      <point x="68.6738" y="442"/>
      <point x="56.0068" y="429.333"/>
      <point x="48.0068" y="416" type="curve" smooth="yes"/>
      <point x="40.0068" y="402.667"/>
      <point x="34.6738" y="391"/>
      <point x="32.0068" y="381" type="curve" smooth="yes"/>
      <point x="30.0068" y="375"/>
      <point x="29.0068" y="368.667"/>
      <point x="29.0068" y="362" type="curve" smooth="yes"/>
      <point x="29.0068" y="109" type="line"/>
      <point x="29.0068" y="108" type="line" smooth="yes"/>
      <point x="29.6738" y="92"/>
      <point x="33.3408" y="77.333"/>
      <point x="40.0078" y="64" type="curve" smooth="yes"/>
      <point x="46.6748" y="50.667"/>
      <point x="55.5078" y="39.5"/>
      <point x="66.5078" y="30.5" type="curve" smooth="yes"/>
      <point x="77.5078" y="21.5"/>
      <point x="90.0078" y="14.333"/>
      <point x="104.008" y="9" type="curve" smooth="yes"/>
      <point x="118.008" y="3.66699"/>
      <point x="132.341" y="1"/>
      <point x="147.008" y="1" type="curve" smooth="yes"/>
      <point x="155.675" y="0.333008"/>
      <point x="164.342" y="0.666016"/>
      <point x="173.009" y="1.99902" type="curve" smooth="yes"/>
      <point x="180.342" y="3.33203"/>
      <point x="188.675" y="5.49902"/>
      <point x="198.008" y="8.49902" type="curve" smooth="yes"/>
      <point x="207.341" y="11.499"/>
      <point x="216.674" y="16.666"/>
      <point x="226.007" y="23.999" type="curve" smooth="yes"/>
      <point x="239.34" y="34.666"/>
      <point x="253.673" y="50.166"/>
      <point x="269.006" y="70.499" type="curve" smooth="yes"/>
      <point x="284.339" y="90.832"/>
      <point x="302.672" y="114.999"/>
      <point x="324.005" y="142.999" type="curve"/>
      <point x="324.005" y="-146.001" type="line" smooth="yes"/>
      <point x="323.338" y="-154.001"/>
      <point x="321.005" y="-161.001"/>
      <point x="317.005" y="-167.001" type="curve" smooth="yes"/>
      <point x="313.672" y="-172.334"/>
      <point x="307.839" y="-177.001"/>
      <point x="299.506" y="-181.001" type="curve" smooth="yes"/>
      <point x="291.173" y="-185.001"/>
      <point x="279.673" y="-187.001"/>
      <point x="265.006" y="-187.001" type="curve" smooth="yes"/>
      <point x="250.339" y="-187.001"/>
      <point x="239.006" y="-185.001"/>
      <point x="231.006" y="-181.001" type="curve" smooth="yes"/>
      <point x="223.006" y="-177.001"/>
      <point x="217.339" y="-172.334"/>
      <point x="214.006" y="-167.001" type="curve" smooth="yes"/>
      <point x="210.006" y="-161.001"/>
      <point x="207.673" y="-154.001"/>
      <point x="207.006" y="-146.001" type="curve" smooth="yes"/>
      <point x="206.006" y="-94.001" type="line" smooth="yes"/>
      <point x="206.006" y="-81.334"/>
      <point x="203.673" y="-69.501"/>
      <point x="199.006" y="-58.501" type="curve" smooth="yes"/>
      <point x="194.339" y="-47.501"/>
      <point x="187.839" y="-38.001"/>
      <point x="179.506" y="-30.001" type="curve" smooth="yes"/>
      <point x="171.173" y="-22.001"/>
      <point x="161.506" y="-15.834"/>
      <point x="150.506" y="-11.501" type="curve" smooth="yes"/>
      <point x="139.506" y="-7.16797"/>
      <point x="128.006" y="-5.00098"/>
      <point x="116.006" y="-5.00098" type="curve" smooth="yes"/>
      <point x="104.006" y="-5.00098"/>
      <point x="92.6729" y="-7.33398"/>
      <point x="82.0059" y="-12.001" type="curve" smooth="yes"/>
      <point x="71.3389" y="-16.668"/>
      <point x="62.1719" y="-23.001"/>
      <point x="54.5049" y="-31.001" type="curve" smooth="yes"/>
      <point x="46.8379" y="-39.001"/>
      <point x="40.6709" y="-48.168"/>
      <point x="36.0039" y="-58.501" type="curve" smooth="yes"/>
      <point x="31.3369" y="-68.834"/>
      <point x="29.0039" y="-80.001"/>
      <point x="29.0039" y="-92.001" type="curve" smooth="yes"/>
      <point x="29.0039" y="-122.668"/>
      <point x="37.1709" y="-147.668"/>
      <point x="53.5039" y="-167.001" type="curve" smooth="yes"/>
      <point x="69.8369" y="-186.334"/>
      <point x="90.0039" y="-201.501"/>
      <point x="114.004" y="-212.501" type="curve" smooth="yes"/>
      <point x="138.004" y="-223.501"/>
      <point x="163.671" y="-231.168"/>
      <point x="191.004" y="-235.501" type="curve" smooth="yes"/>
      <point x="218.337" y="-239.834"/>
      <point x="243.337" y="-242.001"/>
      <point x="266.004" y="-242.001" type="curve" smooth="yes"/>
      <point x="300.671" y="-242.001"/>
      <point x="330.671" y="-239.334"/>
      <point x="356.004" y="-234.001" type="curve" smooth="yes"/>
      <point x="381.337" y="-228.668"/>
      <point x="402.67" y="-221.835"/>
      <point x="420.003" y="-213.502" type="curve" smooth="yes"/>
      <point x="437.336" y="-205.169"/>
      <point x="451.169" y="-196.002"/>
      <point x="461.502" y="-186.002" type="curve" smooth="yes"/>
      <point x="471.835" y="-176.002"/>
      <point x="480.002" y="-166.002"/>
      <point x="486.002" y="-156.002" type="curve" smooth="yes"/>
      <point x="493.335" y="-143.335"/>
      <point x="497.835" y="-132.168"/>
      <point x="499.502" y="-122.501" type="curve" smooth="yes"/>
      <point x="501.169" y="-112.834"/>
      <point x="502.002" y="-106.667"/>
      <point x="502.002" y="-104" type="curve" smooth="yes"/>
      <point x="501.002" y="456" type="line" smooth="yes"/>
      <point x="502.335" y="463.333"/>
      <point x="504.668" y="468.5"/>
      <point x="508.001" y="471.5" type="curve" smooth="yes"/>
      <point x="511.334" y="474.5"/>
      <point x="513.667" y="476.333"/>
      <point x="515" y="477" type="curve" smooth="yes"/>
      <point x="518.333" y="479"/>
      <point x="520" y="482"/>
    </contour>
    <contour>
      <point x="241.008" y="109.001" type="curve" smooth="yes"/>
      <point x="236.341" y="106.334"/>
      <point x="232.007" y="104.333"/>
      <point x="228.007" y="103" type="curve" smooth="yes"/>
      <point x="224.674" y="101.667"/>
      <point x="221.007" y="101.334"/>
      <point x="217.007" y="102.001" type="curve" smooth="yes"/>
      <point x="213.007" y="102.668"/>
      <point x="209.34" y="105.668"/>
      <point x="206.007" y="111.001" type="curve" smooth="yes"/>
      <point x="207.007" y="400.001" type="line" smooth="yes"/>
      <point x="207.674" y="407.334"/>
      <point x="210.007" y="414.001"/>
      <point x="214.007" y="420.001" type="curve" smooth="yes"/>
      <point x="217.34" y="425.334"/>
      <point x="223.007" y="430.167"/>
      <point x="231.007" y="434.5" type="curve" smooth="yes"/>
      <point x="239.007" y="438.833"/>
      <point x="250.674" y="441"/>
      <point x="266.007" y="441" type="curve" smooth="yes"/>
      <point x="280.674" y="441"/>
      <point x="292.007" y="439"/>
      <point x="300.007" y="435" type="curve" smooth="yes"/>
      <point x="308.007" y="431"/>
      <point x="313.674" y="426.333"/>
      <point x="317.007" y="421" type="curve" smooth="yes"/>
      <point x="321.007" y="415"/>
      <point x="323.34" y="408.333"/>
      <point x="324.007" y="401" type="curve" smooth="yes"/>
      <point x="324.007" y="185" type="line" smooth="yes"/>
      <point x="320.674" y="181.667"/>
      <point x="315.841" y="177"/>
      <point x="309.508" y="171" type="curve" smooth="yes"/>
      <point x="303.175" y="165"/>
      <point x="296.008" y="158.167"/>
      <point x="288.008" y="150.5" type="curve" smooth="yes"/>
      <point x="280.008" y="142.833"/>
      <point x="271.841" y="135.333"/>
      <point x="263.508" y="128" type="curve" smooth="yes"/>
      <point x="255.175" y="120.667"/>
      <point x="247.675" y="114.334"/>
    </contour>
  </outline>
</glyph>
<glyph name="dotlessi" format="2">
  <advance width="250"/>
  <unicode hex="0131"/>
  <outline>
    <contour>
      <point x="212" y="29" type="line"/>
      <point x="212.667" y="23"/>
      <point x="213.999" y="17.998"/>
      <point x="215.999" y="13.998" type="curve" smooth="yes"/>
      <point x="217.332" y="10.665"/>
      <point x="219.332" y="7.49805"/>
      <point x="221.999" y="4.49805" type="curve" smooth="yes"/>
      <point x="224.666" y="1.49805"/>
      <point x="228.333" y="-0.00195312"/>
      <point x="233" y="-0.00195312" type="curve"/>
      <point x="212" y="-0.00195312" type="line"/>
      <point x="205" y="-0.00195312" type="line"/>
      <point x="35" y="-0.00195312" type="line"/>
      <point x="35" y="448.998" type="line" smooth="yes"/>
      <point x="35" y="457.665"/>
      <point x="33" y="463.832"/>
      <point x="29" y="467.499" type="curve" smooth="yes"/>
      <point x="25" y="471.166"/>
      <point x="22.333" y="473.333"/>
      <point x="21" y="474" type="curve" smooth="yes"/>
      <point x="17.667" y="476"/>
      <point x="16" y="478.667"/>
      <point x="16" y="482" type="curve" smooth="yes"/>
      <point x="16" y="488.667"/>
      <point x="19" y="492"/>
      <point x="25" y="492" type="curve" smooth="yes"/>
      <point x="26" y="492" type="line"/>
      <point x="35" y="492" type="line"/>
      <point x="124" y="492" type="line" smooth="yes"/>
      <point x="136" y="492"/>
      <point x="147.333" y="489.667"/>
      <point x="158" y="485" type="curve" smooth="yes"/>
      <point x="168.667" y="480.333"/>
      <point x="178" y="474"/>
      <point x="186" y="466" type="curve" smooth="yes"/>
      <point x="194" y="458"/>
      <point x="200.333" y="448.5"/>
      <point x="205" y="437.5" type="curve" smooth="yes"/>
      <point x="209.667" y="426.5"/>
      <point x="212" y="415"/>
      <point x="212" y="403" type="curve" smooth="yes"/>
      <point x="212" y="29" type="line"/>
    </contour>
  </outline>
</glyph>
<glyph name="nacute" format="2">
  <advance width="550"/>
  <unicode hex="0144"/>
  <outline>
    <contour>
      <point x="511" y="156" type="line"/>
      <point x="511" y="126"/>
      <point x="511.83" y="101.166"/>
      <point x="513.497" y="81.499" type="curve" smooth="yes"/>
      <point x="515.164" y="61.832"/>
      <point x="517.331" y="45.665"/>
      <point x="519.998" y="32.998" type="curve" smooth="yes"/>
      <point x="522.665" y="18.3311"/>
      <point x="525.998" y="6.66406"/>
      <point x="529.998" y="-2.00293" type="curve"/>
      <point x="470.998" y="-2.00293" type="line" smooth="yes"/>
      <point x="456.331" y="-2.00293"/>
      <point x="442.831" y="-1.83594"/>
      <point x="430.498" y="-1.50293" type="curve" smooth="yes"/>
      <point x="418.165" y="-1.16992"/>
      <point x="412.332" y="-1.00293"/>
      <point x="412.999" y="-1.00293" type="curve"/>
      <point x="391.666" y="1.66406"/>
      <point x="373.666" y="10.3311"/>
      <point x="358.999" y="24.998" type="curve" smooth="yes"/>
      <point x="344.332" y="39.665"/>
      <point x="335.999" y="57.665"/>
      <point x="333.999" y="78.998" type="curve" smooth="yes"/>
      <point x="333.999" y="348.998" type="line" smooth="yes"/>
      <point x="332.666" y="361.665"/>
      <point x="330.333" y="370.832"/>
      <point x="327" y="376.499" type="curve" smooth="yes"/>
      <point x="323.667" y="382.166"/>
      <point x="319.667" y="385.499"/>
      <point x="315" y="386.499" type="curve" smooth="yes"/>
      <point x="310.333" y="387.499"/>
      <point x="306" y="387.166"/>
      <point x="302" y="385.499" type="curve" smooth="yes"/>
      <point x="298" y="383.832"/>
      <point x="295" y="382.332"/>
      <point x="293" y="380.999" type="curve" smooth="yes"/>
      <point x="286.333" y="374.999"/>
      <point x="279.166" y="368.499"/>
      <point x="271.499" y="361.499" type="curve" smooth="yes"/>
      <point x="263.832" y="354.499"/>
      <point x="256.332" y="347.499"/>
      <point x="248.999" y="340.499" type="curve" smooth="yes"/>
      <point x="241.666" y="333.499"/>
      <point x="234.999" y="327.166"/>
      <point x="228.999" y="321.499" type="curve" smooth="yes"/>
      <point x="222.999" y="315.832"/>
      <point x="218.666" y="311.665"/>
      <point x="215.999" y="308.998" type="curve" smooth="yes"/>
      <point x="215.999" y="17.998" type="line" smooth="yes"/>
      <point x="217.332" y="13.3311"/>
      <point x="219.332" y="8.99805"/>
      <point x="221.999" y="4.99805" type="curve" smooth="yes"/>
      <point x="224.666" y="0.998047"/>
      <point x="228.666" y="-1.00195"/>
      <point x="233.999" y="-1.00195" type="curve"/>
      <point x="38.999" y="-1.00195" type="line"/>
      <point x="38.999" y="450.998" type="line" smooth="yes"/>
      <point x="38.999" y="459.665"/>
      <point x="36.999" y="465.832"/>
      <point x="32.999" y="469.499" type="curve" smooth="yes"/>
      <point x="28.999" y="473.166"/>
      <point x="26.332" y="475.333"/>
      <point x="24.999" y="476" type="curve" smooth="yes"/>
      <point x="23.999" y="476" type="line" smooth="yes"/>
      <point x="21.332" y="477.333"/>
      <point x="19.999" y="480"/>
      <point x="19.999" y="484" type="curve" smooth="yes"/>
      <point x="19.999" y="490.667"/>
      <point x="22.999" y="494"/>
      <point x="28.999" y="494" type="curve" smooth="yes"/>
      <point x="126.999" y="494" type="line" smooth="yes"/>
      <point x="151.666" y="494"/>
      <point x="172.666" y="485.333"/>
      <point x="189.999" y="468" type="curve" smooth="yes"/>
      <point x="207.332" y="450.667"/>
      <point x="215.999" y="429.667"/>
      <point x="215.999" y="405" type="curve" smooth="yes"/>
      <point x="215.999" y="352" type="line"/>
      <point x="237.332" y="380"/>
      <point x="255.832" y="404.167"/>
      <point x="271.499" y="424.5" type="curve" smooth="yes"/>
      <point x="287.166" y="444.833"/>
      <point x="301.666" y="460.333"/>
      <point x="314.999" y="471" type="curve" smooth="yes"/>
      <point x="323.666" y="478.333"/>
      <point x="332.666" y="483.5"/>
      <point x="341.999" y="486.5" type="curve" smooth="yes"/>
      <point x="351.332" y="489.5"/>
      <point x="359.665" y="491.667"/>
      <point x="366.998" y="493" type="curve" smooth="yes"/>
      <point x="375.665" y="494.333"/>
      <point x="384.332" y="494.666"/>
      <point x="392.999" y="493.999" type="curve" smooth="yes"/>
      <point x="410.999" y="493.999"/>
      <point x="426.332" y="491.666"/>
      <point x="438.999" y="486.999" type="curve" smooth="yes"/>
      <point x="451.666" y="482.332"/>
      <point x="462.333" y="476.332"/>
      <point x="471" y="468.999" type="curve" smooth="yes"/>
      <point x="479.667" y="461.666"/>
      <point x="486.5" y="453.666"/>
      <point x="491.5" y="444.999" type="curve" smooth="yes"/>
      <point x="496.5" y="436.332"/>
      <point x="500.667" y="427.999"/>
      <point x="504" y="419.999" type="curve" smooth="yes"/>
      <point x="506" y="414.666"/>
      <point x="507.667" y="409.333"/>
      <point x="509" y="404" type="curve" smooth="yes"/>
      <point x="510.333" y="398.667"/>
      <point x="511" y="392.667"/>
      <point x="511" y="386" type="curve" smooth="yes"/>
      <point x="511" y="156" type="line"/>
    </contour>
    <contour>
      <point x="225.997" y="579.999" type="curve" smooth="yes"/>
      <point x="245.33" y="581.999"/>
      <point x="259.499" y="589"/>
      <point x="268.499" y="601" type="curve" smooth="yes"/>
      <point x="277.499" y="613"/>
      <point x="282.666" y="623.667"/>
      <point x="283.999" y="633" type="curve" smooth="yes"/>
      <point x="285.332" y="636.333"/>
      <point x="285.332" y="641.333"/>
      <point x="283.999" y="648" type="curve" smooth="yes"/>
      <point x="281.999" y="658" type="line"/>
      <point x="279.999" y="667" type="line" smooth="yes"/>
      <point x="278.666" y="683.667"/>
      <point x="282.999" y="698.167"/>
      <point x="292.999" y="710.5" type="curve" smooth="yes"/>
      <point x="302.999" y="722.833"/>
      <point x="315.999" y="729.666"/>
      <point x="331.999" y="730.999" type="curve" smooth="yes"/>
      <point x="347.999" y="732.999"/>
      <point x="362.332" y="728.832"/>
      <point x="374.999" y="718.499" type="curve" smooth="yes"/>
      <point x="387.666" y="708.166"/>
      <point x="394.666" y="695.333"/>
      <point x="395.999" y="680" type="curve" smooth="yes"/>
      <point x="396.666" y="678"/>
      <point x="396.833" y="676.333"/>
      <point x="396.5" y="675" type="curve" smooth="yes"/>
      <point x="396.167" y="673.667"/>
      <point x="396.334" y="672.334"/>
      <point x="397.001" y="671.001" type="curve" smooth="yes"/>
      <point x="396.334" y="669.001"/>
      <point x="395.834" y="665.501"/>
      <point x="395.501" y="660.501" type="curve" smooth="yes"/>
      <point x="395.168" y="655.501"/>
      <point x="394.001" y="650.334"/>
      <point x="392.001" y="645.001" type="curve" smooth="yes"/>
      <point x="389.334" y="637.668"/>
      <point x="385.167" y="630.001"/>
      <point x="379.5" y="622.001" type="curve" smooth="yes"/>
      <point x="373.833" y="614.001"/>
      <point x="365.666" y="606.334"/>
      <point x="354.999" y="599.001" type="curve" smooth="yes"/>
      <point x="344.332" y="591.668"/>
      <point x="330.665" y="585.168"/>
      <point x="313.998" y="579.501" type="curve" smooth="yes"/>
      <point x="297.331" y="573.834"/>
      <point x="276.664" y="570.001"/>
      <point x="251.997" y="568.001" type="curve" smooth="yes"/>
      <point x="227.33" y="565.334"/>
      <point x="210.163" y="564.167"/>
      <point x="200.496" y="564.5" type="curve" smooth="yes"/>
      <point x="190.829" y="564.833"/>
      <point x="186.329" y="566"/>
      <point x="186.996" y="568" type="curve" smooth="yes"/>
      <point x="187.663" y="570"/>
      <point x="191.83" y="572.167"/>
      <point x="199.497" y="574.5" type="curve" smooth="yes"/>
      <point x="207.164" y="576.833"/>
      <point x="215.997" y="578.666"/>
    </contour>
  </outline>
</glyph>
<glyph name="racute" format="2">
  <advance width="550"/>
  <unicode hex="0155"/>
  <outline>
    <contour>
      <point x="522" y="388" type="curve" smooth="yes"/>
      <point x="522" y="376.667"/>
      <point x="519.833" y="365.498"/>
      <point x="515.5" y="354.498" type="curve" smooth="yes"/>
      <point x="511.167" y="343.498"/>
      <point x="505.167" y="333.831"/>
      <point x="497.5" y="325.498" type="curve" smooth="yes"/>
      <point x="489.833" y="317.165"/>
      <point x="480.5" y="310.498"/>
      <point x="469.5" y="305.498" type="curve" smooth="yes"/>
      <point x="458.5" y="300.498"/>
      <point x="446.667" y="297.998"/>
      <point x="434" y="297.998" type="curve" smooth="yes"/>
      <point x="422" y="297.998"/>
      <point x="410.5" y="300.331"/>
      <point x="399.5" y="304.998" type="curve" smooth="yes"/>
      <point x="388.5" y="309.665"/>
      <point x="379" y="315.998"/>
      <point x="371" y="323.998" type="curve" smooth="yes"/>
      <point x="363" y="331.998"/>
      <point x="356.667" y="341.331"/>
      <point x="352" y="351.998" type="curve" smooth="yes"/>
      <point x="347.333" y="362.665"/>
      <point x="345" y="373.998"/>
      <point x="345" y="385.998" type="curve" smooth="yes"/>
      <point x="345" y="387.998" type="line" smooth="yes"/>
      <point x="345" y="391.331"/>
      <point x="344" y="394.331"/>
      <point x="342" y="396.998" type="curve" smooth="yes"/>
      <point x="340.667" y="398.998"/>
      <point x="338.667" y="400.498"/>
      <point x="336" y="401.498" type="curve" smooth="yes"/>
      <point x="333.333" y="402.498"/>
      <point x="329.666" y="401.665"/>
      <point x="324.999" y="398.998" type="curve" smooth="yes"/>
      <point x="320.332" y="396.331"/>
      <point x="312.832" y="390.498"/>
      <point x="302.499" y="381.498" type="curve" smooth="yes"/>
      <point x="292.166" y="372.498"/>
      <point x="281.499" y="362.998"/>
      <point x="270.499" y="352.998" type="curve" smooth="yes"/>
      <point x="259.499" y="342.998"/>
      <point x="249.499" y="333.665"/>
      <point x="240.499" y="324.998" type="curve" smooth="yes"/>
      <point x="231.499" y="316.331"/>
      <point x="225.999" y="310.998"/>
      <point x="223.999" y="308.998" type="curve" smooth="yes"/>
      <point x="223.999" y="30.998" type="line" smooth="yes"/>
      <point x="224.666" y="24.998"/>
      <point x="225.999" y="19.998"/>
      <point x="227.999" y="15.998" type="curve" smooth="yes"/>
      <point x="229.332" y="11.998"/>
      <point x="231.332" y="8.49805"/>
      <point x="233.999" y="5.49805" type="curve" smooth="yes"/>
      <point x="236.666" y="2.49805"/>
      <point x="240.333" y="0.998047"/>
      <point x="245" y="0.998047" type="curve"/>
      <point x="47" y="0.998047" type="line"/>
      <point x="47" y="452.998" type="line" smooth="yes"/>
      <point x="47" y="461.665"/>
      <point x="45" y="467.832"/>
      <point x="41" y="471.499" type="curve" smooth="yes"/>
      <point x="37" y="475.166"/>
      <point x="34.333" y="477.333"/>
      <point x="33" y="478" type="curve" smooth="yes"/>
      <point x="29.667" y="479.333"/>
      <point x="28" y="482"/>
      <point x="28" y="486" type="curve" smooth="yes"/>
      <point x="28" y="492.667"/>
      <point x="31.333" y="496"/>
      <point x="38" y="496" type="curve" smooth="yes"/>
      <point x="136" y="496" type="line" smooth="yes"/>
      <point x="148" y="496"/>
      <point x="159.333" y="493.667"/>
      <point x="170" y="489" type="curve" smooth="yes"/>
      <point x="180.667" y="484.333"/>
      <point x="190" y="478"/>
      <point x="198" y="470" type="curve" smooth="yes"/>
      <point x="206" y="462"/>
      <point x="212.333" y="452.5"/>
      <point x="217" y="441.5" type="curve" smooth="yes"/>
      <point x="221.667" y="430.5"/>
      <point x="224" y="419"/>
      <point x="224" y="407" type="curve" smooth="yes"/>
      <point x="224" y="350" type="line"/>
      <point x="246" y="379.333"/>
      <point x="265" y="404.5"/>
      <point x="281" y="425.5" type="curve" smooth="yes"/>
      <point x="297" y="446.5"/>
      <point x="311.667" y="462.333"/>
      <point x="325" y="473" type="curve" smooth="yes"/>
      <point x="334.333" y="480.333"/>
      <point x="343.666" y="485.5"/>
      <point x="352.999" y="488.5" type="curve" smooth="yes"/>
      <point x="362.332" y="491.5"/>
      <point x="370.665" y="493.667"/>
      <point x="377.998" y="495" type="curve" smooth="yes"/>
      <point x="386.665" y="496.333"/>
      <point x="395.332" y="496.666"/>
      <point x="403.999" y="495.999" type="curve" smooth="yes"/>
      <point x="421.999" y="495.999"/>
      <point x="437.332" y="493.666"/>
      <point x="449.999" y="488.999" type="curve" smooth="yes"/>
      <point x="462.666" y="484.332"/>
      <point x="473.333" y="478.332"/>
      <point x="482" y="470.999" type="curve" smooth="yes"/>
      <point x="490.667" y="463.666"/>
      <point x="497.5" y="455.666"/>
      <point x="502.5" y="446.999" type="curve" smooth="yes"/>
      <point x="507.5" y="438.332"/>
      <point x="511.667" y="429.999"/>
      <point x="515" y="421.999" type="curve" smooth="yes"/>
      <point x="517" y="416.666"/>
      <point x="518.667" y="411.333"/>
      <point x="520" y="406" type="curve" smooth="yes"/>
      <point x="521.333" y="400.667"/>
      <point x="522" y="394.667"/>
    </contour>
    <contour>
      <point x="226" y="599.998" type="curve" smooth="yes"/>
      <point x="245.333" y="601.998"/>
      <point x="259.502" y="608.999"/>
      <point x="268.502" y="620.999" type="curve" smooth="yes"/>
      <point x="277.502" y="632.999"/>
      <point x="282.669" y="643.666"/>
      <point x="284.002" y="652.999" type="curve" smooth="yes"/>
      <point x="285.335" y="656.332"/>
      <point x="285.335" y="661.332"/>
      <point x="284.002" y="667.999" type="curve" smooth="yes"/>
      <point x="282.002" y="677.999" type="line"/>
      <point x="280.002" y="686.999" type="line" smooth="yes"/>
      <point x="278.669" y="703.666"/>
      <point x="283.002" y="718.166"/>
      <point x="293.002" y="730.499" type="curve" smooth="yes"/>
      <point x="303.002" y="742.832"/>
      <point x="316.002" y="749.665"/>
      <point x="332.002" y="750.998" type="curve" smooth="yes"/>
      <point x="348.002" y="752.998"/>
      <point x="362.335" y="748.831"/>
      <point x="375.002" y="738.498" type="curve" smooth="yes"/>
      <point x="387.669" y="728.165"/>
      <point x="394.669" y="715.332"/>
      <point x="396.002" y="699.999" type="curve" smooth="yes"/>
      <point x="396.669" y="697.999"/>
      <point x="396.836" y="696.332"/>
      <point x="396.503" y="694.999" type="curve" smooth="yes"/>
      <point x="396.17" y="693.666"/>
      <point x="396.337" y="692.333"/>
      <point x="397.004" y="691" type="curve" smooth="yes"/>
      <point x="396.337" y="689"/>
      <point x="395.837" y="685.5"/>
      <point x="395.504" y="680.5" type="curve" smooth="yes"/>
      <point x="395.171" y="675.5"/>
      <point x="394.004" y="670.333"/>
      <point x="392.004" y="665" type="curve" smooth="yes"/>
      <point x="389.337" y="657.667"/>
      <point x="385.17" y="650"/>
      <point x="379.503" y="642" type="curve" smooth="yes"/>
      <point x="373.836" y="634"/>
      <point x="365.669" y="626.333"/>
      <point x="355.002" y="619" type="curve" smooth="yes"/>
      <point x="344.335" y="611.667"/>
      <point x="330.668" y="605.167"/>
      <point x="314.001" y="599.5" type="curve" smooth="yes"/>
      <point x="297.334" y="593.833"/>
      <point x="276.667" y="590"/>
      <point x="252" y="588" type="curve" smooth="yes"/>
      <point x="227.333" y="585.333"/>
      <point x="210.166" y="584.166"/>
      <point x="200.499" y="584.499" type="curve" smooth="yes"/>
      <point x="190.832" y="584.832"/>
      <point x="186.332" y="585.999"/>
      <point x="186.999" y="587.999" type="curve" smooth="yes"/>
      <point x="187.666" y="589.999"/>
      <point x="191.833" y="592.166"/>
      <point x="199.5" y="594.499" type="curve" smooth="yes"/>
      <point x="207.167" y="596.832"/>
      <point x="216" y="598.665"/>
    </contour>
  </outline>
</glyph>
<glyph name="Ubreve" format="2">
  <advance width="550"/>
  <unicode hex="016C"/>
  <outline>
    <contour>
      <point x="530" y="617" type="curve" smooth="yes"/>
      <point x="530" y="613.667"/>
      <point x="528.33" y="610.997"/>
      <point x="524.997" y="608.997" type="curve" smooth="yes"/>
      <point x="524.33" y="608.33"/>
      <point x="522.33" y="606.497"/>
      <point x="518.997" y="603.497" type="curve" smooth="yes"/>
      <point x="515.664" y="600.497"/>
      <point x="513.331" y="595.664"/>
      <point x="511.998" y="588.997" type="curve" smooth="yes"/>
      <point x="511.998" y="133.997" type="line" smooth="yes"/>
      <point x="511.998" y="132.664"/>
      <point x="511.665" y="129.831"/>
      <point x="510.998" y="125.498" type="curve" smooth="yes"/>
      <point x="510.331" y="121.165"/>
      <point x="509.331" y="115.665"/>
      <point x="507.998" y="108.998" type="curve" smooth="yes"/>
      <point x="504.665" y="98.998"/>
      <point x="498.998" y="87.498"/>
      <point x="490.998" y="74.498" type="curve" smooth="yes"/>
      <point x="482.998" y="61.498"/>
      <point x="470.331" y="49.165"/>
      <point x="452.998" y="37.498" type="curve" smooth="yes"/>
      <point x="435.665" y="25.8311"/>
      <point x="412.832" y="15.998"/>
      <point x="384.499" y="7.99805" type="curve" smooth="yes"/>
      <point x="356.166" y="-0.00195312"/>
      <point x="319.999" y="-4.00195"/>
      <point x="275.999" y="-4.00195" type="curve" smooth="yes"/>
      <point x="253.999" y="-4.00195"/>
      <point x="233.999" y="-3.00195"/>
      <point x="215.999" y="-1.00195" type="curve" smooth="yes"/>
      <point x="175.999" y="3.66504"/>
      <point x="144.332" y="12.332"/>
      <point x="120.999" y="24.999" type="curve" smooth="yes"/>
      <point x="97.666" y="37.666"/>
      <point x="79.999" y="50.999"/>
      <point x="67.999" y="64.999" type="curve" smooth="yes"/>
      <point x="55.999" y="78.999"/>
      <point x="48.332" y="92.332"/>
      <point x="44.999" y="104.999" type="curve" smooth="yes"/>
      <point x="41.666" y="117.666"/>
      <point x="39.999" y="126.333"/>
      <point x="39.999" y="131" type="curve" smooth="yes"/>
      <point x="39.332" y="134.333"/>
      <point x="38.999" y="139"/>
      <point x="38.999" y="145" type="curve" smooth="yes"/>
      <point x="38.999" y="588" type="line" smooth="yes"/>
      <point x="37.666" y="595.333"/>
      <point x="35.333" y="600.5"/>
      <point x="32" y="603.5" type="curve" smooth="yes"/>
      <point x="28.667" y="606.5"/>
      <point x="26.334" y="608.333"/>
      <point x="25.001" y="609" type="curve" smooth="yes"/>
      <point x="21.668" y="611"/>
      <point x="20.001" y="613.667"/>
      <point x="20.001" y="617" type="curve" smooth="yes"/>
      <point x="20.001" y="623.667"/>
      <point x="23.001" y="627"/>
      <point x="29.001" y="627" type="curve" smooth="yes"/>
      <point x="30.001" y="627" type="line"/>
      <point x="39.001" y="627" type="line"/>
      <point x="143.001" y="627" type="line" smooth="yes"/>
      <point x="163.001" y="627"/>
      <point x="180.168" y="619.833"/>
      <point x="194.501" y="605.5" type="curve" smooth="yes"/>
      <point x="208.834" y="591.167"/>
      <point x="216.001" y="573.667"/>
      <point x="216.001" y="553" type="curve" smooth="yes"/>
      <point x="217.001" y="92" type="line" smooth="yes"/>
      <point x="217.668" y="84.667"/>
      <point x="220.001" y="78"/>
      <point x="224.001" y="72" type="curve" smooth="yes"/>
      <point x="227.334" y="66.667"/>
      <point x="233.001" y="62"/>
      <point x="241.001" y="58" type="curve" smooth="yes"/>
      <point x="249.001" y="54"/>
      <point x="260.334" y="52"/>
      <point x="275.001" y="52" type="curve" smooth="yes"/>
      <point x="289.668" y="52"/>
      <point x="301.168" y="54"/>
      <point x="309.501" y="58" type="curve" smooth="yes"/>
      <point x="317.834" y="62"/>
      <point x="323.667" y="66.667"/>
      <point x="327" y="72" type="curve" smooth="yes"/>
      <point x="331" y="78"/>
      <point x="333.333" y="84.667"/>
      <point x="334" y="92" type="curve" smooth="yes"/>
      <point x="334" y="553" type="line" smooth="yes"/>
      <point x="334" y="573.667"/>
      <point x="341.167" y="591.167"/>
      <point x="355.5" y="605.5" type="curve" smooth="yes"/>
      <point x="369.833" y="619.833"/>
      <point x="387.333" y="627"/>
      <point x="408" y="627" type="curve" smooth="yes"/>
      <point x="512" y="627" type="line"/>
      <point x="521" y="627" type="line" smooth="yes"/>
      <point x="527" y="627"/>
      <point x="530" y="623.667"/>
    </contour>
    <contour>
      <point x="158.997" y="771.997" type="line" smooth="yes"/>
      <point x="158.997" y="783.997"/>
      <point x="163.164" y="794.166"/>
      <point x="171.497" y="802.499" type="curve" smooth="yes"/>
      <point x="179.83" y="810.832"/>
      <point x="189.997" y="814.999"/>
      <point x="201.997" y="814.999" type="curve" smooth="yes"/>
      <point x="213.33" y="814.999"/>
      <point x="223.33" y="810.832"/>
      <point x="231.997" y="802.499" type="curve" smooth="yes"/>
      <point x="240.664" y="794.166"/>
      <point x="244.997" y="783.999"/>
      <point x="244.997" y="771.999" type="curve" smooth="yes"/>
      <point x="244.997" y="746.999" type="line" smooth="yes"/>
      <point x="244.997" y="742.999"/>
      <point x="246.33" y="739.666"/>
      <point x="248.997" y="736.999" type="curve" smooth="yes"/>
      <point x="250.997" y="734.332"/>
      <point x="253.83" y="731.999"/>
      <point x="257.497" y="729.999" type="curve" smooth="yes"/>
      <point x="261.164" y="727.999"/>
      <point x="266.664" y="726.999"/>
      <point x="273.997" y="726.999" type="curve" smooth="yes"/>
      <point x="281.33" y="726.999"/>
      <point x="286.663" y="727.999"/>
      <point x="289.996" y="729.999" type="curve" smooth="yes"/>
      <point x="293.329" y="731.999"/>
      <point x="295.996" y="734.332"/>
      <point x="297.996" y="736.999" type="curve" smooth="yes"/>
      <point x="299.996" y="739.666"/>
      <point x="301.329" y="742.999"/>
      <point x="301.996" y="746.999" type="curve" smooth="yes"/>
      <point x="301.996" y="772.999" type="line" smooth="yes"/>
      <point x="302.663" y="784.999"/>
      <point x="307.163" y="794.999"/>
      <point x="315.496" y="802.999" type="curve" smooth="yes"/>
      <point x="323.829" y="810.999"/>
      <point x="333.662" y="814.999"/>
      <point x="344.995" y="814.999" type="curve" smooth="yes"/>
      <point x="356.995" y="814.999"/>
      <point x="367.162" y="810.832"/>
      <point x="375.495" y="802.499" type="curve" smooth="yes"/>
      <point x="383.828" y="794.166"/>
      <point x="387.995" y="783.999"/>
      <point x="387.995" y="771.999" type="curve" smooth="yes"/>
      <point x="387.995" y="766.999" type="line" smooth="yes"/>
      <point x="387.328" y="754.332"/>
      <point x="382.995" y="742.999"/>
      <point x="374.995" y="732.999" type="curve" smooth="yes"/>
      <point x="367.662" y="724.332"/>
      <point x="356.329" y="716.665"/>
      <point x="340.996" y="709.998" type="curve" smooth="yes"/>
      <point x="325.663" y="703.331"/>
      <point x="303.33" y="699.998"/>
      <point x="273.997" y="699.998" type="curve" smooth="yes"/>
      <point x="247.33" y="699.998"/>
      <point x="226.497" y="702.998"/>
      <point x="211.497" y="708.998" type="curve" smooth="yes"/>
      <point x="196.497" y="714.998"/>
      <point x="185.164" y="721.665"/>
      <point x="177.497" y="728.998" type="curve" smooth="yes"/>
      <point x="169.83" y="736.331"/>
      <point x="164.83" y="743.664"/>
      <point x="162.497" y="750.997" type="curve" smooth="yes"/>
      <point x="160.164" y="758.33"/>
      <point x="158.997" y="763.33"/>
      <point x="158.997" y="765.997" type="curve" smooth="yes"/>
    </contour>
  </outline>
</glyph>
<glyph name="ubreve" format="2">
  <advance width="550"/>
  <unicode hex="016D"/>
  <outline>
    <contour>
      <point x="509" y="129" type="line"/>
      <point x="510.333" y="107.667"/>
      <point x="512" y="89"/>
      <point x="514" y="73" type="curve" smooth="yes"/>
      <point x="516" y="57"/>
      <point x="518.333" y="43.333"/>
      <point x="521" y="32" type="curve" smooth="yes"/>
      <point x="523.667" y="19.333"/>
      <point x="526.667" y="8.33301"/>
      <point x="530" y="-1" type="curve"/>
      <point x="412" y="0" type="line" smooth="yes"/>
      <point x="391.333" y="2.66699"/>
      <point x="373.666" y="11.334"/>
      <point x="358.999" y="26.001" type="curve" smooth="yes"/>
      <point x="344.332" y="40.668"/>
      <point x="335.999" y="58.668"/>
      <point x="333.999" y="80.001" type="curve"/>
      <point x="333.999" y="79.334"/>
      <point x="333.999" y="84.834"/>
      <point x="333.999" y="96.501" type="curve" smooth="yes"/>
      <point x="333.999" y="108.168"/>
      <point x="333.666" y="123.001"/>
      <point x="332.999" y="141.001" type="curve"/>
      <point x="311.666" y="113.001"/>
      <point x="293.333" y="88.834"/>
      <point x="278" y="68.501" type="curve" smooth="yes"/>
      <point x="262.667" y="48.168"/>
      <point x="248.334" y="32.668"/>
      <point x="235.001" y="22.001" type="curve" smooth="yes"/>
      <point x="225.668" y="14.668"/>
      <point x="216.335" y="9.50098"/>
      <point x="207.002" y="6.50098" type="curve" smooth="yes"/>
      <point x="197.669" y="3.50098"/>
      <point x="189.336" y="1.33398"/>
      <point x="182.003" y="0.000976562" type="curve" smooth="yes"/>
      <point x="173.336" y="-1.33203"/>
      <point x="164.669" y="-1.66504"/>
      <point x="156.002" y="-0.998047" type="curve" smooth="yes"/>
      <point x="138.002" y="-0.998047"/>
      <point x="122.835" y="1.33496"/>
      <point x="110.502" y="6.00195" type="curve" smooth="yes"/>
      <point x="98.1689" y="10.6689"/>
      <point x="87.6689" y="16.6689"/>
      <point x="79.002" y="24.002" type="curve" smooth="yes"/>
      <point x="70.335" y="31.335"/>
      <point x="63.335" y="39.335"/>
      <point x="58.002" y="48.002" type="curve" smooth="yes"/>
      <point x="52.6689" y="56.6689"/>
      <point x="48.3359" y="65.002"/>
      <point x="45.0029" y="73.002" type="curve" smooth="yes"/>
      <point x="40.3359" y="84.335"/>
      <point x="38.0029" y="95.668"/>
      <point x="38.0029" y="107.001" type="curve" smooth="yes"/>
      <point x="38.0029" y="455.001" type="line" smooth="yes"/>
      <point x="37.3359" y="462.334"/>
      <point x="35.1689" y="467.667"/>
      <point x="31.502" y="471" type="curve" smooth="yes"/>
      <point x="27.835" y="474.333"/>
      <point x="25.335" y="476.333"/>
      <point x="24.002" y="477" type="curve" smooth="yes"/>
      <point x="20.6689" y="478.333"/>
      <point x="19.002" y="481"/>
      <point x="19.002" y="485" type="curve" smooth="yes"/>
      <point x="19.002" y="491.667"/>
      <point x="22.335" y="495"/>
      <point x="29.002" y="495" type="curve" smooth="yes"/>
      <point x="38.002" y="495" type="line"/>
      <point x="126.002" y="495" type="line" smooth="yes"/>
      <point x="150.669" y="495"/>
      <point x="171.669" y="486.333"/>
      <point x="189.002" y="469" type="curve" smooth="yes"/>
      <point x="206.335" y="451.667"/>
      <point x="215.002" y="430.667"/>
      <point x="215.002" y="406" type="curve" smooth="yes"/>
      <point x="215.002" y="107" type="line" smooth="yes"/>
      <point x="215.002" y="103.667"/>
      <point x="216.002" y="100.667"/>
      <point x="218.002" y="98" type="curve" smooth="yes"/>
      <point x="219.335" y="96"/>
      <point x="221.168" y="94.5"/>
      <point x="223.501" y="93.5" type="curve" smooth="yes"/>
      <point x="225.834" y="92.5"/>
      <point x="229.667" y="93.333"/>
      <point x="235" y="96" type="curve" smooth="yes"/>
      <point x="239" y="98"/>
      <point x="245.5" y="103"/>
      <point x="254.5" y="111" type="curve" smooth="yes"/>
      <point x="263.5" y="119"/>
      <point x="273" y="127.667"/>
      <point x="283" y="137" type="curve" smooth="yes"/>
      <point x="293" y="146.333"/>
      <point x="302.667" y="155.333"/>
      <point x="312" y="164" type="curve" smooth="yes"/>
      <point x="321.333" y="172.667"/>
      <point x="328" y="179"/>
      <point x="332" y="183" type="curve"/>
      <point x="332" y="495" type="line"/>
      <point x="509" y="495" type="line"/>
      <point x="509" y="129" type="line"/>
    </contour>
    <contour>
      <point x="159" y="642" type="line" smooth="yes"/>
      <point x="159" y="654"/>
      <point x="163.167" y="664.169"/>
      <point x="171.5" y="672.502" type="curve" smooth="yes"/>
      <point x="179.833" y="680.835"/>
      <point x="190" y="685.002"/>
      <point x="202" y="685.002" type="curve" smooth="yes"/>
      <point x="213.333" y="685.002"/>
      <point x="223.333" y="680.835"/>
      <point x="232" y="672.502" type="curve" smooth="yes"/>
      <point x="240.667" y="664.169"/>
      <point x="245" y="654.002"/>
      <point x="245" y="642.002" type="curve" smooth="yes"/>
      <point x="245" y="617.002" type="line" smooth="yes"/>
      <point x="245" y="613.002"/>
      <point x="246.333" y="609.669"/>
      <point x="249" y="607.002" type="curve" smooth="yes"/>
      <point x="251" y="604.335"/>
      <point x="253.833" y="602.002"/>
      <point x="257.5" y="600.002" type="curve" smooth="yes"/>
      <point x="261.167" y="598.002"/>
      <point x="266.667" y="597.002"/>
      <point x="274" y="597.002" type="curve" smooth="yes"/>
      <point x="281.333" y="597.002"/>
      <point x="286.666" y="598.002"/>
      <point x="289.999" y="600.002" type="curve" smooth="yes"/>
      <point x="293.332" y="602.002"/>
      <point x="295.999" y="604.335"/>
      <point x="297.999" y="607.002" type="curve" smooth="yes"/>
      <point x="299.999" y="609.669"/>
      <point x="301.332" y="613.002"/>
      <point x="301.999" y="617.002" type="curve" smooth="yes"/>
      <point x="301.999" y="643.002" type="line" smooth="yes"/>
      <point x="302.666" y="655.002"/>
      <point x="307.166" y="665.002"/>
      <point x="315.499" y="673.002" type="curve" smooth="yes"/>
      <point x="323.832" y="681.002"/>
      <point x="333.665" y="685.002"/>
      <point x="344.998" y="685.002" type="curve" smooth="yes"/>
      <point x="356.998" y="685.002"/>
      <point x="367.165" y="680.835"/>
      <point x="375.498" y="672.502" type="curve" smooth="yes"/>
      <point x="383.831" y="664.169"/>
      <point x="387.998" y="654.002"/>
      <point x="387.998" y="642.002" type="curve" smooth="yes"/>
      <point x="387.998" y="637.002" type="line" smooth="yes"/>
      <point x="387.331" y="624.335"/>
      <point x="382.998" y="613.002"/>
      <point x="374.998" y="603.002" type="curve" smooth="yes"/>
      <point x="367.665" y="594.335"/>
      <point x="356.332" y="586.668"/>
      <point x="340.999" y="580.001" type="curve" smooth="yes"/>
      <point x="325.666" y="573.334"/>
      <point x="303.333" y="570.001"/>
      <point x="274" y="570.001" type="curve" smooth="yes"/>
      <point x="247.333" y="570.001"/>
      <point x="226.5" y="573.001"/>
      <point x="211.5" y="579.001" type="curve" smooth="yes"/>
      <point x="196.5" y="585.001"/>
      <point x="185.167" y="591.668"/>
      <point x="177.5" y="599.001" type="curve" smooth="yes"/>
      <point x="169.833" y="606.334"/>
      <point x="164.833" y="613.667"/>
      <point x="162.5" y="621" type="curve" smooth="yes"/>
      <point x="160.167" y="628.333"/>
      <point x="159" y="633.333"/>
      <point x="159" y="636" type="curve" smooth="yes"/>
    </contour>
  </outline>
</glyph>
<glyph name="zacute" format="2">
  <advance width="550"/>
  <unicode hex="017A"/>
  <outline>
    <contour>
      <point x="432" y="177" type="curve" smooth="yes"/>
      <point x="453.333" y="177"/>
      <point x="472.165" y="170.328"/>
      <point x="488.498" y="156.995" type="curve" smooth="yes"/>
      <point x="504.831" y="143.662"/>
      <point x="514.998" y="126.662"/>
      <point x="518.998" y="105.995" type="curve" smooth="yes"/>
      <point x="519.665" y="102.662"/>
      <point x="519.998" y="99.8291"/>
      <point x="519.998" y="97.4961" type="curve" smooth="yes"/>
      <point x="519.998" y="88.9961" type="line" smooth="yes"/>
      <point x="519.998" y="64.3291"/>
      <point x="511.498" y="43.3291"/>
      <point x="494.498" y="25.9961" type="curve" smooth="yes"/>
      <point x="477.498" y="8.66309"/>
      <point x="456.665" y="-0.00390625"/>
      <point x="431.998" y="-0.00390625" type="curve" smooth="yes"/>
      <point x="37.998" y="-0.00390625" type="line" smooth="yes"/>
      <point x="37.3311" y="-0.00390625"/>
      <point x="36.8311" y="0.163086"/>
      <point x="36.498" y="0.496094" type="curve" smooth="yes"/>
      <point x="36.165" y="0.829102"/>
      <point x="35.332" y="0.996094"/>
      <point x="33.999" y="0.996094" type="curve" smooth="yes"/>
      <point x="28.666" y="3.66309"/>
      <point x="27.333" y="7.99609"/>
      <point x="30" y="13.9961" type="curve" smooth="yes"/>
      <point x="31.333" y="16.6631"/>
      <point x="33.333" y="18.3301"/>
      <point x="36" y="18.9971" type="curve" smooth="yes"/>
      <point x="38" y="18.9971"/>
      <point x="40.833" y="20.8301"/>
      <point x="44.5" y="24.4971" type="curve" smooth="yes"/>
      <point x="48.167" y="28.1641"/>
      <point x="52.167" y="32.3311"/>
      <point x="56.5" y="36.998" type="curve" smooth="yes"/>
      <point x="60.833" y="41.665"/>
      <point x="64.833" y="46.332"/>
      <point x="68.5" y="50.999" type="curve" smooth="yes"/>
      <point x="72.167" y="55.666"/>
      <point x="74.667" y="58.999"/>
      <point x="76" y="60.999" type="curve" smooth="yes"/>
      <point x="307" y="449.999" type="line"/>
      <point x="309" y="451.999" type="line"/>
      <point x="267" y="451.999" type="line"/>
      <point x="263" y="451.999" type="line" smooth="yes"/>
      <point x="248.333" y="451.332"/>
      <point x="237.166" y="449.165"/>
      <point x="229.499" y="445.498" type="curve" smooth="yes"/>
      <point x="221.832" y="441.831"/>
      <point x="216.332" y="437.331"/>
      <point x="212.999" y="431.998" type="curve" smooth="yes"/>
      <point x="208.999" y="425.998"/>
      <point x="206.666" y="419.331"/>
      <point x="205.999" y="411.998" type="curve" smooth="yes"/>
      <point x="205.999" y="403.998" type="line"/>
      <point x="205.999" y="402.998" type="line" smooth="yes"/>
      <point x="205.332" y="378.998"/>
      <point x="196.499" y="358.331"/>
      <point x="179.499" y="340.998" type="curve" smooth="yes"/>
      <point x="162.499" y="323.665"/>
      <point x="141.666" y="314.998"/>
      <point x="116.999" y="314.998" type="curve" smooth="yes"/>
      <point x="95.666" y="314.998"/>
      <point x="76.833" y="321.831"/>
      <point x="60.5" y="335.498" type="curve" smooth="yes"/>
      <point x="44.167" y="349.165"/>
      <point x="34" y="366.332"/>
      <point x="30" y="386.999" type="curve" smooth="yes"/>
      <point x="29.333" y="389.666"/>
      <point x="29" y="392.333"/>
      <point x="29" y="395" type="curve" smooth="yes"/>
      <point x="29" y="404" type="line" smooth="yes"/>
      <point x="29" y="428.667"/>
      <point x="37.5" y="449.5"/>
      <point x="54.5" y="466.5" type="curve" smooth="yes"/>
      <point x="71.5" y="483.5"/>
      <point x="92.333" y="492"/>
      <point x="117" y="492" type="curve" smooth="yes"/>
      <point x="500" y="492" type="line"/>
      <point x="511" y="492" type="line"/>
      <point x="515" y="492" type="line" smooth="yes"/>
      <point x="520.333" y="488.667"/>
      <point x="522" y="484.334"/>
      <point x="520" y="479.001" type="curve" smooth="yes"/>
      <point x="518.667" y="477.001"/>
      <point x="516.667" y="475.334"/>
      <point x="514" y="474.001" type="curve" smooth="yes"/>
      <point x="512.667" y="474.001"/>
      <point x="511.334" y="473.334"/>
      <point x="510.001" y="472.001" type="curve" smooth="yes"/>
      <point x="508.001" y="470.668"/>
      <point x="504.001" y="467.001"/>
      <point x="498.001" y="461.001" type="curve" smooth="yes"/>
      <point x="494.668" y="457.668"/>
      <point x="491.668" y="454.501"/>
      <point x="489.001" y="451.501" type="curve" smooth="yes"/>
      <point x="486.334" y="448.501"/>
      <point x="483.667" y="445.334"/>
      <point x="481" y="442.001" type="curve" smooth="yes"/>
      <point x="473" y="432.001" type="line"/>
      <point x="242" y="42.001" type="line"/>
      <point x="241" y="41.001" type="line"/>
      <point x="241" y="40.001" type="line"/>
      <point x="282" y="40.001" type="line"/>
      <point x="284" y="40.001" type="line"/>
      <point x="286" y="40.001" type="line" smooth="yes"/>
      <point x="300" y="40.001"/>
      <point x="311" y="42.168"/>
      <point x="319" y="46.501" type="curve" smooth="yes"/>
      <point x="327" y="50.834"/>
      <point x="332.667" y="55.667"/>
      <point x="336" y="61" type="curve" smooth="yes"/>
      <point x="340" y="67"/>
      <point x="342.333" y="73.667"/>
      <point x="343" y="81" type="curve" smooth="yes"/>
      <point x="343" y="88" type="line"/>
      <point x="343" y="89" type="line" smooth="yes"/>
      <point x="343.667" y="113.667"/>
      <point x="352.5" y="134.5"/>
      <point x="369.5" y="151.5" type="curve" smooth="yes"/>
      <point x="386.5" y="168.5"/>
      <point x="407.333" y="177"/>
    </contour>
    <contour>
      <point x="225.999" y="559.995" type="curve" smooth="yes"/>
      <point x="245.332" y="561.995"/>
      <point x="259.501" y="568.996"/>
      <point x="268.501" y="580.996" type="curve" smooth="yes"/>
      <point x="277.501" y="592.996"/>
      <point x="282.668" y="603.663"/>
      <point x="284.001" y="612.996" type="curve" smooth="yes"/>
      <point x="285.334" y="616.329"/>
      <point x="285.334" y="621.329"/>
      <point x="284.001" y="627.996" type="curve" smooth="yes"/>
      <point x="282.001" y="637.996" type="line"/>
      <point x="280.001" y="646.996" type="line" smooth="yes"/>
      <point x="278.668" y="663.663"/>
      <point x="283.001" y="678.163"/>
      <point x="293.001" y="690.496" type="curve" smooth="yes"/>
      <point x="303.001" y="702.829"/>
      <point x="316.001" y="709.662"/>
      <point x="332.001" y="710.995" type="curve" smooth="yes"/>
      <point x="348.001" y="712.995"/>
      <point x="362.334" y="708.828"/>
      <point x="375.001" y="698.495" type="curve" smooth="yes"/>
      <point x="387.668" y="688.162"/>
      <point x="394.668" y="675.329"/>
      <point x="396.001" y="659.996" type="curve" smooth="yes"/>
      <point x="396.668" y="657.996"/>
      <point x="396.835" y="656.329"/>
      <point x="396.502" y="654.996" type="curve" smooth="yes"/>
      <point x="396.169" y="653.663"/>
      <point x="396.336" y="652.33"/>
      <point x="397.003" y="650.997" type="curve" smooth="yes"/>
      <point x="396.336" y="648.997"/>
      <point x="395.836" y="645.497"/>
      <point x="395.503" y="640.497" type="curve" smooth="yes"/>
      <point x="395.17" y="635.497"/>
      <point x="394.003" y="630.33"/>
      <point x="392.003" y="624.997" type="curve" smooth="yes"/>
      <point x="389.336" y="617.664"/>
      <point x="385.169" y="609.997"/>
      <point x="379.502" y="601.997" type="curve" smooth="yes"/>
      <point x="373.835" y="593.997"/>
      <point x="365.668" y="586.33"/>
      <point x="355.001" y="578.997" type="curve" smooth="yes"/>
      <point x="344.334" y="571.664"/>
      <point x="330.667" y="565.164"/>
      <point x="314" y="559.497" type="curve" smooth="yes"/>
      <point x="297.333" y="553.83"/>
      <point x="276.666" y="549.997"/>
      <point x="251.999" y="547.997" type="curve" smooth="yes"/>
      <point x="227.332" y="545.33"/>
      <point x="210.165" y="544.163"/>
      <point x="200.498" y="544.496" type="curve" smooth="yes"/>
      <point x="190.831" y="544.829"/>
      <point x="186.331" y="545.996"/>
      <point x="186.998" y="547.996" type="curve" smooth="yes"/>
      <point x="187.665" y="549.996"/>
      <point x="191.832" y="552.163"/>
      <point x="199.499" y="554.496" type="curve" smooth="yes"/>
      <point x="207.166" y="556.829"/>
      <point x="215.999" y="558.662"/>
    </contour>
  </outline>
</glyph>
<glyph name="Oslashacute" format="2">
  <advance width="550"/>
  <unicode hex="01FE"/>
  <outline>
    <contour>
      <point x="511" y="495" type="curve" smooth="yes"/>
      <point x="511.667" y="493"/>
      <point x="511.995" y="490.835"/>
      <point x="511.995" y="488.502" type="curve" smooth="yes"/>
      <point x="511.995" y="482.002" type="line"/>
      <point x="511.995" y="137.002" type="line" smooth="yes"/>
      <point x="511.995" y="135.669"/>
      <point x="511.828" y="132.836"/>
      <point x="511.495" y="128.503" type="curve" smooth="yes"/>
      <point x="511.162" y="124.17"/>
      <point x="509.995" y="118.67"/>
      <point x="507.995" y="112.003" type="curve" smooth="yes"/>
      <point x="504.662" y="102.003"/>
      <point x="498.995" y="90.5029"/>
      <point x="490.995" y="77.5029" type="curve" smooth="yes"/>
      <point x="482.995" y="64.5029"/>
      <point x="470.328" y="52.1699"/>
      <point x="452.995" y="40.5029" type="curve" smooth="yes"/>
      <point x="435.662" y="28.8359"/>
      <point x="412.829" y="19.0029"/>
      <point x="384.496" y="11.0029" type="curve" smooth="yes"/>
      <point x="356.163" y="3.00293"/>
      <point x="319.996" y="-0.99707"/>
      <point x="275.996" y="-0.99707" type="curve" smooth="yes"/>
      <point x="254.663" y="-0.99707"/>
      <point x="234.996" y="0.00292969"/>
      <point x="216.996" y="2.00293" type="curve" smooth="yes"/>
      <point x="208.329" y="3.33594"/>
      <point x="200.162" y="4.66895"/>
      <point x="192.495" y="6.00195" type="curve" smooth="yes"/>
      <point x="184.828" y="7.33496"/>
      <point x="177.328" y="8.66797"/>
      <point x="169.995" y="10.001" type="curve"/>
      <point x="149.995" y="-27.999" type="line" smooth="yes"/>
      <point x="143.995" y="-38.666"/>
      <point x="135.328" y="-45.666"/>
      <point x="123.995" y="-48.999" type="curve" smooth="yes"/>
      <point x="112.662" y="-52.332"/>
      <point x="101.662" y="-51.332"/>
      <point x="90.9951" y="-45.999" type="curve" smooth="yes"/>
      <point x="80.3281" y="-40.666"/>
      <point x="73.3281" y="-32.166"/>
      <point x="69.9951" y="-20.499" type="curve" smooth="yes"/>
      <point x="66.6621" y="-8.83203"/>
      <point x="67.6621" y="2.33496"/>
      <point x="72.9951" y="13.002" type="curve" smooth="yes"/>
      <point x="90.9951" y="46.002" type="line"/>
      <point x="79.6621" y="54.6689"/>
      <point x="70.8291" y="63.502"/>
      <point x="64.4961" y="72.502" type="curve" smooth="yes"/>
      <point x="58.1631" y="81.502"/>
      <point x="53.1631" y="90.002"/>
      <point x="49.4961" y="98.002" type="curve" smooth="yes"/>
      <point x="45.8291" y="106.002"/>
      <point x="43.3291" y="113.169"/>
      <point x="41.9961" y="119.502" type="curve" smooth="yes"/>
      <point x="40.6631" y="125.835"/>
      <point x="39.9961" y="130.668"/>
      <point x="39.9961" y="134.001" type="curve" smooth="yes"/>
      <point x="39.3291" y="137.334"/>
      <point x="38.9961" y="142.001"/>
      <point x="38.9961" y="148.001" type="curve" smooth="yes"/>
      <point x="38.9961" y="492.001" type="line" smooth="yes"/>
      <point x="38.9961" y="494.001"/>
      <point x="39.4961" y="498.834"/>
      <point x="40.4961" y="506.501" type="curve" smooth="yes"/>
      <point x="41.4961" y="514.168"/>
      <point x="44.6631" y="523.335"/>
      <point x="49.9961" y="534.002" type="curve" smooth="yes"/>
      <point x="54.6631" y="544.002"/>
      <point x="61.8301" y="554.835"/>
      <point x="71.4971" y="566.502" type="curve" smooth="yes"/>
      <point x="81.1641" y="578.169"/>
      <point x="94.8311" y="588.669"/>
      <point x="112.498" y="598.002" type="curve" smooth="yes"/>
      <point x="130.165" y="607.335"/>
      <point x="152.165" y="615.168"/>
      <point x="178.498" y="621.501" type="curve" smooth="yes"/>
      <point x="204.831" y="627.834"/>
      <point x="236.998" y="631.001"/>
      <point x="274.998" y="631.001" type="curve" smooth="yes"/>
      <point x="300.331" y="631.001"/>
      <point x="322.998" y="629.668"/>
      <point x="342.998" y="627.001" type="curve" smooth="yes"/>
      <point x="362.998" y="624.334"/>
      <point x="380.665" y="620.334"/>
      <point x="395.998" y="615.001" type="curve"/>
      <point x="407.998" y="637.001" type="line" smooth="yes"/>
      <point x="413.331" y="647.668"/>
      <point x="421.831" y="654.668"/>
      <point x="433.498" y="658.001" type="curve" smooth="yes"/>
      <point x="445.165" y="661.334"/>
      <point x="456.332" y="660.334"/>
      <point x="466.999" y="655.001" type="curve" smooth="yes"/>
      <point x="477.666" y="649.668"/>
      <point x="484.666" y="641.168"/>
      <point x="487.999" y="629.501" type="curve" smooth="yes"/>
      <point x="491.332" y="617.834"/>
      <point x="489.999" y="606.667"/>
      <point x="483.999" y="596" type="curve" smooth="yes"/>
      <point x="471.999" y="573" type="line"/>
      <point x="484.666" y="561"/>
      <point x="494.333" y="548"/>
      <point x="501" y="534" type="curve" smooth="yes"/>
      <point x="505" y="525.333"/>
      <point x="507.667" y="517.5"/>
      <point x="509" y="510.5" type="curve" smooth="yes"/>
      <point x="510.333" y="503.5"/>
      <point x="511" y="498.333"/>
    </contour>
    <contour>
      <point x="216.995" y="281.002" type="line"/>
      <point x="333.995" y="500.001" type="line"/>
      <point x="333.995" y="535.001" type="line" smooth="yes"/>
      <point x="333.328" y="542.334"/>
      <point x="330.995" y="549.001"/>
      <point x="326.995" y="555.001" type="curve" smooth="yes"/>
      <point x="323.662" y="560.334"/>
      <point x="317.995" y="565.001"/>
      <point x="309.995" y="569.001" type="curve" smooth="yes"/>
      <point x="301.995" y="573.001"/>
      <point x="290.662" y="575.001"/>
      <point x="275.995" y="575.001" type="curve" smooth="yes"/>
      <point x="260.662" y="575.001"/>
      <point x="248.995" y="572.834"/>
      <point x="240.995" y="568.501" type="curve" smooth="yes"/>
      <point x="232.995" y="564.168"/>
      <point x="227.328" y="559.335"/>
      <point x="223.995" y="554.002" type="curve" smooth="yes"/>
      <point x="219.995" y="548.002"/>
      <point x="217.662" y="541.335"/>
      <point x="216.995" y="534.002" type="curve" smooth="yes"/>
    </contour>
    <contour>
      <point x="275.995" y="55.001" type="curve" smooth="yes"/>
      <point x="290.662" y="55.001"/>
      <point x="301.828" y="57.001"/>
      <point x="309.495" y="61.001" type="curve" smooth="yes"/>
      <point x="317.162" y="65.001"/>
      <point x="322.995" y="69.668"/>
      <point x="326.995" y="75.001" type="curve" smooth="yes"/>
      <point x="330.995" y="81.001"/>
      <point x="333.662" y="87.668"/>
      <point x="334.995" y="95.001" type="curve" smooth="yes"/>
      <point x="333.995" y="316.001" type="line"/>
      <point x="216.995" y="97.001" type="line"/>
      <point x="216.995" y="95.001" type="line" smooth="yes"/>
      <point x="217.662" y="87.668"/>
      <point x="219.995" y="81.001"/>
      <point x="223.995" y="75.001" type="curve" smooth="yes"/>
      <point x="227.328" y="69.668"/>
      <point x="232.995" y="65.001"/>
      <point x="240.995" y="61.001" type="curve" smooth="yes"/>
      <point x="248.995" y="57.001"/>
      <point x="260.662" y="55.001"/>
    </contour>
    <contour>
      <point x="225.994" y="730.001" type="curve" smooth="yes"/>
      <point x="245.327" y="732.001"/>
      <point x="259.496" y="739.002"/>
      <point x="268.496" y="751.002" type="curve" smooth="yes"/>
      <point x="277.496" y="763.002"/>
      <point x="282.663" y="773.669"/>
      <point x="283.996" y="783.002" type="curve" smooth="yes"/>
      <point x="285.329" y="786.335"/>
      <point x="285.329" y="791.335"/>
      <point x="283.996" y="798.002" type="curve" smooth="yes"/>
      <point x="281.996" y="808.002" type="line"/>
      <point x="279.996" y="817.002" type="line" smooth="yes"/>
      <point x="278.663" y="833.669"/>
      <point x="282.996" y="848.169"/>
      <point x="292.996" y="860.502" type="curve" smooth="yes"/>
      <point x="302.996" y="872.835"/>
      <point x="315.996" y="879.668"/>
      <point x="331.996" y="881.001" type="curve" smooth="yes"/>
      <point x="347.996" y="883.001"/>
      <point x="362.329" y="878.834"/>
      <point x="374.996" y="868.501" type="curve" smooth="yes"/>
      <point x="387.663" y="858.168"/>
      <point x="394.663" y="845.335"/>
      <point x="395.996" y="830.002" type="curve" smooth="yes"/>
      <point x="396.663" y="828.002"/>
      <point x="396.83" y="826.335"/>
      <point x="396.497" y="825.002" type="curve" smooth="yes"/>
      <point x="396.164" y="823.669"/>
      <point x="396.331" y="822.336"/>
      <point x="396.998" y="821.003" type="curve" smooth="yes"/>
      <point x="396.331" y="819.003"/>
      <point x="395.831" y="815.503"/>
      <point x="395.498" y="810.503" type="curve" smooth="yes"/>
      <point x="395.165" y="805.503"/>
      <point x="393.998" y="800.336"/>
      <point x="391.998" y="795.003" type="curve" smooth="yes"/>
      <point x="389.331" y="787.67"/>
      <point x="385.164" y="780.003"/>
      <point x="379.497" y="772.003" type="curve" smooth="yes"/>
      <point x="373.83" y="764.003"/>
      <point x="365.663" y="756.336"/>
      <point x="354.996" y="749.003" type="curve" smooth="yes"/>
      <point x="344.329" y="741.67"/>
      <point x="330.662" y="735.17"/>
      <point x="313.995" y="729.503" type="curve" smooth="yes"/>
      <point x="297.328" y="723.836"/>
      <point x="276.661" y="720.003"/>
      <point x="251.994" y="718.003" type="curve" smooth="yes"/>
      <point x="227.327" y="715.336"/>
      <point x="210.16" y="714.169"/>
      <point x="200.493" y="714.502" type="curve" smooth="yes"/>
      <point x="190.826" y="714.835"/>
      <point x="186.326" y="716.002"/>
      <point x="186.993" y="718.002" type="curve" smooth="yes"/>
      <point x="187.66" y="720.002"/>
      <point x="191.827" y="722.169"/>
      <point x="199.494" y="724.502" type="curve" smooth="yes"/>
      <point x="207.161" y="726.835"/>
      <point x="215.994" y="728.668"/>
    </contour>
  </outline>
</glyph>
<glyph name="oslashacute" format="2">
  <advance width="524"/>
  <unicode hex="01FF"/>
  <outline>
    <contour>
      <point x="498" y="140" type="line" smooth="yes"/>
      <point x="498" y="138"/>
      <point x="497.501" y="133.164"/>
      <point x="496.501" y="125.497" type="curve" smooth="yes"/>
      <point x="495.501" y="117.83"/>
      <point x="492.668" y="108.997"/>
      <point x="488.001" y="98.9971" type="curve" smooth="yes"/>
      <point x="483.334" y="88.9971"/>
      <point x="476.167" y="78.1641"/>
      <point x="466.5" y="66.4971" type="curve" smooth="yes"/>
      <point x="456.833" y="54.8301"/>
      <point x="443.166" y="44.3301"/>
      <point x="425.499" y="34.9971" type="curve" smooth="yes"/>
      <point x="407.832" y="25.6641"/>
      <point x="385.665" y="17.8311"/>
      <point x="358.998" y="11.498" type="curve" smooth="yes"/>
      <point x="332.331" y="5.16504"/>
      <point x="299.998" y="1.99805"/>
      <point x="261.998" y="1.99805" type="curve" smooth="yes"/>
      <point x="243.998" y="1.99805"/>
      <point x="227.498" y="2.66504"/>
      <point x="212.498" y="3.99805" type="curve" smooth="yes"/>
      <point x="197.498" y="5.33105"/>
      <point x="183.331" y="7.33105"/>
      <point x="169.998" y="9.99805" type="curve"/>
      <point x="141.998" y="-44.002" type="line" smooth="yes"/>
      <point x="136.665" y="-54.002"/>
      <point x="128.332" y="-60.6689"/>
      <point x="116.999" y="-64.002" type="curve" smooth="yes"/>
      <point x="105.666" y="-67.335"/>
      <point x="94.666" y="-66.335"/>
      <point x="83.999" y="-61.002" type="curve" smooth="yes"/>
      <point x="81.999" y="-60.002" type="line" smooth="yes"/>
      <point x="71.999" y="-54.6689"/>
      <point x="65.332" y="-46.3359"/>
      <point x="61.999" y="-35.0029" type="curve" smooth="yes"/>
      <point x="58.666" y="-23.6699"/>
      <point x="59.666" y="-13.0029"/>
      <point x="64.999" y="-3.00293" type="curve" smooth="yes"/>
      <point x="87.999" y="40.9971" type="line"/>
      <point x="73.999" y="49.6641"/>
      <point x="62.999" y="58.9971"/>
      <point x="54.999" y="68.9971" type="curve" smooth="yes"/>
      <point x="46.999" y="78.9971"/>
      <point x="40.832" y="88.4971"/>
      <point x="36.499" y="97.4971" type="curve" smooth="yes"/>
      <point x="32.166" y="106.497"/>
      <point x="29.333" y="114.497"/>
      <point x="28" y="121.497" type="curve" smooth="yes"/>
      <point x="26.667" y="128.497"/>
      <point x="26" y="133.664"/>
      <point x="26" y="136.997" type="curve" smooth="yes"/>
      <point x="25.333" y="139.664"/>
      <point x="25" y="144.331"/>
      <point x="25" y="150.998" type="curve" smooth="yes"/>
      <point x="25" y="154.998" type="line"/>
      <point x="25" y="380.998" type="line"/>
      <point x="25" y="385.998" type="line" smooth="yes"/>
      <point x="25.667" y="411.998"/>
      <point x="34.667" y="435.331"/>
      <point x="52" y="455.998" type="curve" smooth="yes"/>
      <point x="59.333" y="464.665"/>
      <point x="68.666" y="473.165"/>
      <point x="79.999" y="481.498" type="curve" smooth="yes"/>
      <point x="91.332" y="489.831"/>
      <point x="105.332" y="497.331"/>
      <point x="121.999" y="503.998" type="curve" smooth="yes"/>
      <point x="138.666" y="510.665"/>
      <point x="158.333" y="515.998"/>
      <point x="181" y="519.998" type="curve" smooth="yes"/>
      <point x="203.667" y="523.998"/>
      <point x="230" y="525.998"/>
      <point x="260" y="525.998" type="curve" smooth="yes"/>
      <point x="276.667" y="525.998"/>
      <point x="292" y="525.331"/>
      <point x="306" y="523.998" type="curve" smooth="yes"/>
      <point x="320" y="522.665"/>
      <point x="333" y="520.998"/>
      <point x="345" y="518.998" type="curve"/>
      <point x="381" y="586.998" type="line" smooth="yes"/>
      <point x="386.333" y="596.998"/>
      <point x="394.666" y="603.665"/>
      <point x="405.999" y="606.998" type="curve" smooth="yes"/>
      <point x="417.332" y="610.331"/>
      <point x="428.332" y="609.331"/>
      <point x="438.999" y="603.998" type="curve" smooth="yes"/>
      <point x="439.999" y="602.998" type="line" smooth="yes"/>
      <point x="450.666" y="597.665"/>
      <point x="457.666" y="589.332"/>
      <point x="460.999" y="577.999" type="curve" smooth="yes"/>
      <point x="464.332" y="566.666"/>
      <point x="463.332" y="555.999"/>
      <point x="457.999" y="545.999" type="curve" smooth="yes"/>
      <point x="427.999" y="489.999" type="line"/>
      <point x="443.332" y="481.332"/>
      <point x="455.499" y="471.832"/>
      <point x="464.499" y="461.499" type="curve" smooth="yes"/>
      <point x="473.499" y="451.166"/>
      <point x="480.332" y="441.333"/>
      <point x="484.999" y="432" type="curve" smooth="yes"/>
      <point x="489.666" y="422.667"/>
      <point x="492.833" y="414.167"/>
      <point x="494.5" y="406.5" type="curve" smooth="yes"/>
      <point x="496.167" y="398.833"/>
      <point x="497" y="393.333"/>
      <point x="497" y="390" type="curve" smooth="yes"/>
      <point x="497" y="388"/>
      <point x="497.167" y="386"/>
      <point x="497.5" y="384" type="curve" smooth="yes"/>
      <point x="497.833" y="382"/>
      <point x="498" y="380"/>
      <point x="498" y="378" type="curve" smooth="yes"/>
    </contour>
    <contour>
      <point x="202.001" y="251.997" type="line"/>
      <point x="309" y="452.996" type="line"/>
      <point x="305" y="457.663"/>
      <point x="299.333" y="461.663"/>
      <point x="292" y="464.996" type="curve" smooth="yes"/>
      <point x="284.667" y="468.329"/>
      <point x="274.334" y="469.996"/>
      <point x="261.001" y="469.996" type="curve" smooth="yes"/>
      <point x="245.668" y="469.996"/>
      <point x="234.001" y="467.829"/>
      <point x="226.001" y="463.496" type="curve" smooth="yes"/>
      <point x="218.001" y="459.163"/>
      <point x="212.334" y="454.33"/>
      <point x="209.001" y="448.997" type="curve" smooth="yes"/>
      <point x="205.001" y="442.997"/>
      <point x="202.668" y="436.33"/>
      <point x="202.001" y="428.997" type="curve" smooth="yes"/>
      <point x="202.001" y="376.997" type="line"/>
    </contour>
    <contour>
      <point x="321" y="149.996" type="line"/>
      <point x="321.001" y="289.996" type="line"/>
      <point x="208.001" y="79.9961" type="line"/>
      <point x="211.334" y="74.6631"/>
      <point x="217.001" y="69.6631"/>
      <point x="225.001" y="64.9961" type="curve" smooth="yes"/>
      <point x="233.001" y="60.3291"/>
      <point x="245.001" y="57.9961"/>
      <point x="261.001" y="57.9961" type="curve" smooth="yes"/>
      <point x="275.668" y="57.9961"/>
      <point x="287.168" y="59.9961"/>
      <point x="295.501" y="63.9961" type="curve" smooth="yes"/>
      <point x="303.834" y="67.9961"/>
      <point x="309.667" y="72.6631"/>
      <point x="313" y="77.9961" type="curve" smooth="yes"/>
      <point x="317" y="83.9961"/>
      <point x="319.333" y="90.6631"/>
      <point x="320" y="97.9961" type="curve" smooth="yes"/>
    </contour>
    <contour>
      <point x="213.001" y="639.996" type="curve" smooth="yes"/>
      <point x="232.334" y="641.996"/>
      <point x="246.503" y="648.997"/>
      <point x="255.503" y="660.997" type="curve" smooth="yes"/>
      <point x="264.503" y="672.997"/>
      <point x="269.67" y="683.664"/>
      <point x="271.003" y="692.997" type="curve" smooth="yes"/>
      <point x="272.336" y="696.33"/>
      <point x="272.336" y="701.33"/>
      <point x="271.003" y="707.997" type="curve" smooth="yes"/>
      <point x="269.003" y="717.997" type="line"/>
      <point x="267.003" y="726.997" type="line" smooth="yes"/>
      <point x="265.67" y="743.664"/>
      <point x="270.003" y="758.164"/>
      <point x="280.003" y="770.497" type="curve" smooth="yes"/>
      <point x="290.003" y="782.83"/>
      <point x="303.003" y="789.663"/>
      <point x="319.003" y="790.996" type="curve" smooth="yes"/>
      <point x="335.003" y="792.996"/>
      <point x="349.336" y="788.829"/>
      <point x="362.003" y="778.496" type="curve" smooth="yes"/>
      <point x="374.67" y="768.163"/>
      <point x="381.67" y="755.33"/>
      <point x="383.003" y="739.997" type="curve" smooth="yes"/>
      <point x="383.67" y="737.997"/>
      <point x="383.837" y="736.33"/>
      <point x="383.504" y="734.997" type="curve" smooth="yes"/>
      <point x="383.171" y="733.664"/>
      <point x="383.338" y="732.331"/>
      <point x="384.005" y="730.998" type="curve" smooth="yes"/>
      <point x="383.338" y="728.998"/>
      <point x="382.838" y="725.498"/>
      <point x="382.505" y="720.498" type="curve" smooth="yes"/>
      <point x="382.172" y="715.498"/>
      <point x="381.005" y="710.331"/>
      <point x="379.005" y="704.998" type="curve" smooth="yes"/>
      <point x="376.338" y="697.665"/>
      <point x="372.171" y="689.998"/>
      <point x="366.504" y="681.998" type="curve" smooth="yes"/>
      <point x="360.837" y="673.998"/>
      <point x="352.67" y="666.331"/>
      <point x="342.003" y="658.998" type="curve" smooth="yes"/>
      <point x="331.336" y="651.665"/>
      <point x="317.669" y="645.165"/>
      <point x="301.002" y="639.498" type="curve" smooth="yes"/>
      <point x="284.335" y="633.831"/>
      <point x="263.668" y="629.998"/>
      <point x="239.001" y="627.998" type="curve" smooth="yes"/>
      <point x="214.334" y="625.331"/>
      <point x="197.167" y="624.164"/>
      <point x="187.5" y="624.497" type="curve" smooth="yes"/>
      <point x="177.833" y="624.83"/>
      <point x="173.333" y="625.997"/>
      <point x="174" y="627.997" type="curve" smooth="yes"/>
      <point x="174.667" y="629.997"/>
      <point x="178.834" y="632.164"/>
      <point x="186.501" y="634.497" type="curve" smooth="yes"/>
      <point x="194.168" y="636.83"/>
      <point x="203.001" y="638.663"/>
    </contour>
  </outline>
</glyph>
<glyph name="kappa" format="2">
  <advance width="550"/>
  <unicode hex="03BA"/>
  <outline>
    <contour>
      <point x="498" y="39" type="line" smooth="yes"/>
      <point x="502" y="31.667"/>
      <point x="505.669" y="25.001"/>
      <point x="509.002" y="19.001" type="curve" smooth="yes"/>
      <point x="512.335" y="13.668"/>
      <point x="515.835" y="9.16797"/>
      <point x="519.502" y="5.50098" type="curve" smooth="yes"/>
      <point x="523.169" y="1.83398"/>
      <point x="526.669" y="0.000976562"/>
      <point x="530.002" y="0.000976562" type="curve"/>
      <point x="360.002" y="0.000976562" type="line"/>
      <point x="280.002" y="187.001" type="line"/>
      <point x="266.669" y="184.334"/>
      <point x="254.502" y="181.334"/>
      <point x="243.502" y="178.001" type="curve" smooth="yes"/>
      <point x="232.502" y="174.668"/>
      <point x="223.002" y="171.335"/>
      <point x="215.002" y="168.002" type="curve"/>
      <point x="215.002" y="30.002" type="line"/>
      <point x="215.002" y="28.002" type="line" smooth="yes"/>
      <point x="215.002" y="26.002"/>
      <point x="215.335" y="24.6689"/>
      <point x="216.002" y="24.002" type="curve" smooth="yes"/>
      <point x="217.335" y="19.335"/>
      <point x="219.502" y="14.168"/>
      <point x="222.502" y="8.50098" type="curve" smooth="yes"/>
      <point x="225.502" y="2.83398"/>
      <point x="230.002" y="0.000976562"/>
      <point x="236.002" y="0.000976562" type="curve"/>
      <point x="215.002" y="0.000976562" type="line"/>
      <point x="100.002" y="0.000976562" type="line"/>
      <point x="38.002" y="0.000976562" type="line"/>
      <point x="38.002" y="466.001" type="line" smooth="yes"/>
      <point x="38.002" y="474.668"/>
      <point x="36.002" y="480.835"/>
      <point x="32.002" y="484.502" type="curve" smooth="yes"/>
      <point x="28.002" y="488.169"/>
      <point x="25.335" y="490.336"/>
      <point x="24.002" y="491.003" type="curve" smooth="yes"/>
      <point x="20.6689" y="492.336"/>
      <point x="19.002" y="495.003"/>
      <point x="19.002" y="499.003" type="curve" smooth="yes"/>
      <point x="19.002" y="505.67"/>
      <point x="22.335" y="509.003"/>
      <point x="29.002" y="509.003" type="curve" smooth="yes"/>
      <point x="38.002" y="509.003" type="line"/>
      <point x="127.002" y="509.003" type="line" smooth="yes"/>
      <point x="139.002" y="509.003"/>
      <point x="150.335" y="506.67"/>
      <point x="161.002" y="502.003" type="curve" smooth="yes"/>
      <point x="171.669" y="497.336"/>
      <point x="181.002" y="491.003"/>
      <point x="189.002" y="483.003" type="curve" smooth="yes"/>
      <point x="197.002" y="475.003"/>
      <point x="203.335" y="465.503"/>
      <point x="208.002" y="454.503" type="curve" smooth="yes"/>
      <point x="212.669" y="443.503"/>
      <point x="215.002" y="432.003"/>
      <point x="215.002" y="420.003" type="curve" smooth="yes"/>
      <point x="215.002" y="347.003" type="line"/>
      <point x="215.002" y="346.003" type="line"/>
      <point x="229.669" y="366.003"/>
      <point x="243.502" y="384.836"/>
      <point x="256.502" y="402.503" type="curve" smooth="yes"/>
      <point x="269.502" y="420.17"/>
      <point x="283.002" y="435.503"/>
      <point x="297.002" y="448.503" type="curve" smooth="yes"/>
      <point x="311.002" y="461.503"/>
      <point x="325.669" y="471.67"/>
      <point x="341.002" y="479.003" type="curve" smooth="yes"/>
      <point x="356.335" y="486.336"/>
      <point x="373.668" y="489.669"/>
      <point x="393.001" y="489.002" type="curve" smooth="yes"/>
      <point x="415.001" y="489.002"/>
      <point x="433.001" y="485.002"/>
      <point x="447.001" y="477.002" type="curve" smooth="yes"/>
      <point x="461.001" y="469.002"/>
      <point x="472.334" y="459.502"/>
      <point x="481.001" y="448.502" type="curve" smooth="yes"/>
      <point x="489.668" y="437.502"/>
      <point x="496.168" y="426.002"/>
      <point x="500.501" y="414.002" type="curve" smooth="yes"/>
      <point x="504.834" y="402.002"/>
      <point x="507.667" y="392.002"/>
      <point x="509" y="384.002" type="curve" smooth="yes"/>
      <point x="510.333" y="377.335"/>
      <point x="511" y="373.335"/>
      <point x="511" y="372.002" type="curve" smooth="yes"/>
      <point x="511" y="368.002" type="line" smooth="yes"/>
      <point x="512.333" y="355.335"/>
      <point x="512" y="343.668"/>
      <point x="510" y="333.001" type="curve" smooth="yes"/>
      <point x="506.667" y="306.334"/>
      <point x="496.5" y="282.167"/>
      <point x="479.5" y="260.5" type="curve" smooth="yes"/>
      <point x="462.5" y="238.833"/>
      <point x="443.667" y="223.333"/>
      <point x="423" y="214" type="curve"/>
    </contour>
    <contour>
      <point x="357.002" y="320.001" type="line" smooth="yes"/>
      <point x="362.335" y="342.001"/>
      <point x="363.337" y="358.336"/>
      <point x="360.004" y="369.003" type="curve" smooth="yes"/>
      <point x="356.671" y="379.67"/>
      <point x="350.671" y="386.17"/>
      <point x="342.004" y="388.503" type="curve" smooth="yes"/>
      <point x="333.337" y="390.836"/>
      <point x="322.837" y="389.503"/>
      <point x="310.504" y="384.503" type="curve" smooth="yes"/>
      <point x="298.171" y="379.503"/>
      <point x="285.838" y="372.836"/>
      <point x="273.505" y="364.503" type="curve" smooth="yes"/>
      <point x="261.172" y="356.17"/>
      <point x="249.672" y="346.503"/>
      <point x="239.005" y="335.503" type="curve" smooth="yes"/>
      <point x="228.338" y="324.503"/>
      <point x="220.338" y="314.003"/>
      <point x="215.005" y="304.003" type="curve"/>
      <point x="215.005" y="197.003" type="line"/>
      <point x="223.672" y="202.336"/>
      <point x="232.172" y="206.836"/>
      <point x="240.505" y="210.503" type="curve" smooth="yes"/>
      <point x="248.838" y="214.17"/>
      <point x="257.005" y="217.67"/>
      <point x="265.005" y="221.003" type="curve" smooth="yes"/>
      <point x="266.338" y="221.67"/>
      <point x="267.671" y="222.17"/>
      <point x="269.004" y="222.503" type="curve" smooth="yes"/>
      <point x="270.337" y="222.836"/>
      <point x="271.67" y="223.336"/>
      <point x="273.003" y="224.003" type="curve" smooth="yes"/>
      <point x="291.003" y="231.336"/>
      <point x="307.17" y="242.169"/>
      <point x="321.503" y="256.502" type="curve" smooth="yes"/>
      <point x="335.836" y="270.835"/>
      <point x="346.669" y="287.668"/>
      <point x="354.002" y="307.001" type="curve" smooth="yes"/>
    </contour>
  </outline>
</glyph>
